G04 #@! TF.GenerationSoftware,KiCad,Pcbnew,5.0.1-33cea8e~66~ubuntu18.04.1*
G04 #@! TF.CreationDate,2018-10-18T18:40:30+09:00*
G04 #@! TF.ProjectId,touch_relay_jack,746F7563685F72656C61795F6A61636B,rev?*
G04 #@! TF.SameCoordinates,Original*
G04 #@! TF.FileFunction,Paste,Top*
G04 #@! TF.FilePolarity,Positive*
%FSLAX46Y46*%
G04 Gerber Fmt 4.6, Leading zero omitted, Abs format (unit mm)*
G04 Created by KiCad (PCBNEW 5.0.1-33cea8e~66~ubuntu18.04.1) date 2018年10月18日 18時40分30秒*
%MOMM*%
%LPD*%
G01*
G04 APERTURE LIST*
%ADD10R,0.600000X0.700000*%
%ADD11C,0.100000*%
%ADD12C,0.875000*%
%ADD13R,0.800000X0.900000*%
G04 APERTURE END LIST*
D10*
G04 #@! TO.C,D1*
X109220000Y-111252000D03*
X107820000Y-111252000D03*
G04 #@! TD*
D11*
G04 #@! TO.C,D2*
G36*
X101369691Y-116403053D02*
X101390926Y-116406203D01*
X101411750Y-116411419D01*
X101431962Y-116418651D01*
X101451368Y-116427830D01*
X101469781Y-116438866D01*
X101487024Y-116451654D01*
X101502930Y-116466070D01*
X101517346Y-116481976D01*
X101530134Y-116499219D01*
X101541170Y-116517632D01*
X101550349Y-116537038D01*
X101557581Y-116557250D01*
X101562797Y-116578074D01*
X101565947Y-116599309D01*
X101567000Y-116620750D01*
X101567000Y-117058250D01*
X101565947Y-117079691D01*
X101562797Y-117100926D01*
X101557581Y-117121750D01*
X101550349Y-117141962D01*
X101541170Y-117161368D01*
X101530134Y-117179781D01*
X101517346Y-117197024D01*
X101502930Y-117212930D01*
X101487024Y-117227346D01*
X101469781Y-117240134D01*
X101451368Y-117251170D01*
X101431962Y-117260349D01*
X101411750Y-117267581D01*
X101390926Y-117272797D01*
X101369691Y-117275947D01*
X101348250Y-117277000D01*
X100835750Y-117277000D01*
X100814309Y-117275947D01*
X100793074Y-117272797D01*
X100772250Y-117267581D01*
X100752038Y-117260349D01*
X100732632Y-117251170D01*
X100714219Y-117240134D01*
X100696976Y-117227346D01*
X100681070Y-117212930D01*
X100666654Y-117197024D01*
X100653866Y-117179781D01*
X100642830Y-117161368D01*
X100633651Y-117141962D01*
X100626419Y-117121750D01*
X100621203Y-117100926D01*
X100618053Y-117079691D01*
X100617000Y-117058250D01*
X100617000Y-116620750D01*
X100618053Y-116599309D01*
X100621203Y-116578074D01*
X100626419Y-116557250D01*
X100633651Y-116537038D01*
X100642830Y-116517632D01*
X100653866Y-116499219D01*
X100666654Y-116481976D01*
X100681070Y-116466070D01*
X100696976Y-116451654D01*
X100714219Y-116438866D01*
X100732632Y-116427830D01*
X100752038Y-116418651D01*
X100772250Y-116411419D01*
X100793074Y-116406203D01*
X100814309Y-116403053D01*
X100835750Y-116402000D01*
X101348250Y-116402000D01*
X101369691Y-116403053D01*
X101369691Y-116403053D01*
G37*
D12*
X101092000Y-116839500D03*
D11*
G36*
X101369691Y-114828053D02*
X101390926Y-114831203D01*
X101411750Y-114836419D01*
X101431962Y-114843651D01*
X101451368Y-114852830D01*
X101469781Y-114863866D01*
X101487024Y-114876654D01*
X101502930Y-114891070D01*
X101517346Y-114906976D01*
X101530134Y-114924219D01*
X101541170Y-114942632D01*
X101550349Y-114962038D01*
X101557581Y-114982250D01*
X101562797Y-115003074D01*
X101565947Y-115024309D01*
X101567000Y-115045750D01*
X101567000Y-115483250D01*
X101565947Y-115504691D01*
X101562797Y-115525926D01*
X101557581Y-115546750D01*
X101550349Y-115566962D01*
X101541170Y-115586368D01*
X101530134Y-115604781D01*
X101517346Y-115622024D01*
X101502930Y-115637930D01*
X101487024Y-115652346D01*
X101469781Y-115665134D01*
X101451368Y-115676170D01*
X101431962Y-115685349D01*
X101411750Y-115692581D01*
X101390926Y-115697797D01*
X101369691Y-115700947D01*
X101348250Y-115702000D01*
X100835750Y-115702000D01*
X100814309Y-115700947D01*
X100793074Y-115697797D01*
X100772250Y-115692581D01*
X100752038Y-115685349D01*
X100732632Y-115676170D01*
X100714219Y-115665134D01*
X100696976Y-115652346D01*
X100681070Y-115637930D01*
X100666654Y-115622024D01*
X100653866Y-115604781D01*
X100642830Y-115586368D01*
X100633651Y-115566962D01*
X100626419Y-115546750D01*
X100621203Y-115525926D01*
X100618053Y-115504691D01*
X100617000Y-115483250D01*
X100617000Y-115045750D01*
X100618053Y-115024309D01*
X100621203Y-115003074D01*
X100626419Y-114982250D01*
X100633651Y-114962038D01*
X100642830Y-114942632D01*
X100653866Y-114924219D01*
X100666654Y-114906976D01*
X100681070Y-114891070D01*
X100696976Y-114876654D01*
X100714219Y-114863866D01*
X100732632Y-114852830D01*
X100752038Y-114843651D01*
X100772250Y-114836419D01*
X100793074Y-114831203D01*
X100814309Y-114828053D01*
X100835750Y-114827000D01*
X101348250Y-114827000D01*
X101369691Y-114828053D01*
X101369691Y-114828053D01*
G37*
D12*
X101092000Y-115264500D03*
G04 #@! TD*
D13*
G04 #@! TO.C,Q1*
X109662000Y-107458000D03*
X107762000Y-107458000D03*
X108712000Y-109458000D03*
G04 #@! TD*
D11*
G04 #@! TO.C,R1*
G36*
X103147691Y-114880053D02*
X103168926Y-114883203D01*
X103189750Y-114888419D01*
X103209962Y-114895651D01*
X103229368Y-114904830D01*
X103247781Y-114915866D01*
X103265024Y-114928654D01*
X103280930Y-114943070D01*
X103295346Y-114958976D01*
X103308134Y-114976219D01*
X103319170Y-114994632D01*
X103328349Y-115014038D01*
X103335581Y-115034250D01*
X103340797Y-115055074D01*
X103343947Y-115076309D01*
X103345000Y-115097750D01*
X103345000Y-115535250D01*
X103343947Y-115556691D01*
X103340797Y-115577926D01*
X103335581Y-115598750D01*
X103328349Y-115618962D01*
X103319170Y-115638368D01*
X103308134Y-115656781D01*
X103295346Y-115674024D01*
X103280930Y-115689930D01*
X103265024Y-115704346D01*
X103247781Y-115717134D01*
X103229368Y-115728170D01*
X103209962Y-115737349D01*
X103189750Y-115744581D01*
X103168926Y-115749797D01*
X103147691Y-115752947D01*
X103126250Y-115754000D01*
X102613750Y-115754000D01*
X102592309Y-115752947D01*
X102571074Y-115749797D01*
X102550250Y-115744581D01*
X102530038Y-115737349D01*
X102510632Y-115728170D01*
X102492219Y-115717134D01*
X102474976Y-115704346D01*
X102459070Y-115689930D01*
X102444654Y-115674024D01*
X102431866Y-115656781D01*
X102420830Y-115638368D01*
X102411651Y-115618962D01*
X102404419Y-115598750D01*
X102399203Y-115577926D01*
X102396053Y-115556691D01*
X102395000Y-115535250D01*
X102395000Y-115097750D01*
X102396053Y-115076309D01*
X102399203Y-115055074D01*
X102404419Y-115034250D01*
X102411651Y-115014038D01*
X102420830Y-114994632D01*
X102431866Y-114976219D01*
X102444654Y-114958976D01*
X102459070Y-114943070D01*
X102474976Y-114928654D01*
X102492219Y-114915866D01*
X102510632Y-114904830D01*
X102530038Y-114895651D01*
X102550250Y-114888419D01*
X102571074Y-114883203D01*
X102592309Y-114880053D01*
X102613750Y-114879000D01*
X103126250Y-114879000D01*
X103147691Y-114880053D01*
X103147691Y-114880053D01*
G37*
D12*
X102870000Y-115316500D03*
D11*
G36*
X103147691Y-116455053D02*
X103168926Y-116458203D01*
X103189750Y-116463419D01*
X103209962Y-116470651D01*
X103229368Y-116479830D01*
X103247781Y-116490866D01*
X103265024Y-116503654D01*
X103280930Y-116518070D01*
X103295346Y-116533976D01*
X103308134Y-116551219D01*
X103319170Y-116569632D01*
X103328349Y-116589038D01*
X103335581Y-116609250D01*
X103340797Y-116630074D01*
X103343947Y-116651309D01*
X103345000Y-116672750D01*
X103345000Y-117110250D01*
X103343947Y-117131691D01*
X103340797Y-117152926D01*
X103335581Y-117173750D01*
X103328349Y-117193962D01*
X103319170Y-117213368D01*
X103308134Y-117231781D01*
X103295346Y-117249024D01*
X103280930Y-117264930D01*
X103265024Y-117279346D01*
X103247781Y-117292134D01*
X103229368Y-117303170D01*
X103209962Y-117312349D01*
X103189750Y-117319581D01*
X103168926Y-117324797D01*
X103147691Y-117327947D01*
X103126250Y-117329000D01*
X102613750Y-117329000D01*
X102592309Y-117327947D01*
X102571074Y-117324797D01*
X102550250Y-117319581D01*
X102530038Y-117312349D01*
X102510632Y-117303170D01*
X102492219Y-117292134D01*
X102474976Y-117279346D01*
X102459070Y-117264930D01*
X102444654Y-117249024D01*
X102431866Y-117231781D01*
X102420830Y-117213368D01*
X102411651Y-117193962D01*
X102404419Y-117173750D01*
X102399203Y-117152926D01*
X102396053Y-117131691D01*
X102395000Y-117110250D01*
X102395000Y-116672750D01*
X102396053Y-116651309D01*
X102399203Y-116630074D01*
X102404419Y-116609250D01*
X102411651Y-116589038D01*
X102420830Y-116569632D01*
X102431866Y-116551219D01*
X102444654Y-116533976D01*
X102459070Y-116518070D01*
X102474976Y-116503654D01*
X102492219Y-116490866D01*
X102510632Y-116479830D01*
X102530038Y-116470651D01*
X102550250Y-116463419D01*
X102571074Y-116458203D01*
X102592309Y-116455053D01*
X102613750Y-116454000D01*
X103126250Y-116454000D01*
X103147691Y-116455053D01*
X103147691Y-116455053D01*
G37*
D12*
X102870000Y-116891500D03*
G04 #@! TD*
D11*
G04 #@! TO.C,R2*
G36*
X109713691Y-105190053D02*
X109734926Y-105193203D01*
X109755750Y-105198419D01*
X109775962Y-105205651D01*
X109795368Y-105214830D01*
X109813781Y-105225866D01*
X109831024Y-105238654D01*
X109846930Y-105253070D01*
X109861346Y-105268976D01*
X109874134Y-105286219D01*
X109885170Y-105304632D01*
X109894349Y-105324038D01*
X109901581Y-105344250D01*
X109906797Y-105365074D01*
X109909947Y-105386309D01*
X109911000Y-105407750D01*
X109911000Y-105920250D01*
X109909947Y-105941691D01*
X109906797Y-105962926D01*
X109901581Y-105983750D01*
X109894349Y-106003962D01*
X109885170Y-106023368D01*
X109874134Y-106041781D01*
X109861346Y-106059024D01*
X109846930Y-106074930D01*
X109831024Y-106089346D01*
X109813781Y-106102134D01*
X109795368Y-106113170D01*
X109775962Y-106122349D01*
X109755750Y-106129581D01*
X109734926Y-106134797D01*
X109713691Y-106137947D01*
X109692250Y-106139000D01*
X109254750Y-106139000D01*
X109233309Y-106137947D01*
X109212074Y-106134797D01*
X109191250Y-106129581D01*
X109171038Y-106122349D01*
X109151632Y-106113170D01*
X109133219Y-106102134D01*
X109115976Y-106089346D01*
X109100070Y-106074930D01*
X109085654Y-106059024D01*
X109072866Y-106041781D01*
X109061830Y-106023368D01*
X109052651Y-106003962D01*
X109045419Y-105983750D01*
X109040203Y-105962926D01*
X109037053Y-105941691D01*
X109036000Y-105920250D01*
X109036000Y-105407750D01*
X109037053Y-105386309D01*
X109040203Y-105365074D01*
X109045419Y-105344250D01*
X109052651Y-105324038D01*
X109061830Y-105304632D01*
X109072866Y-105286219D01*
X109085654Y-105268976D01*
X109100070Y-105253070D01*
X109115976Y-105238654D01*
X109133219Y-105225866D01*
X109151632Y-105214830D01*
X109171038Y-105205651D01*
X109191250Y-105198419D01*
X109212074Y-105193203D01*
X109233309Y-105190053D01*
X109254750Y-105189000D01*
X109692250Y-105189000D01*
X109713691Y-105190053D01*
X109713691Y-105190053D01*
G37*
D12*
X109473500Y-105664000D03*
D11*
G36*
X108138691Y-105190053D02*
X108159926Y-105193203D01*
X108180750Y-105198419D01*
X108200962Y-105205651D01*
X108220368Y-105214830D01*
X108238781Y-105225866D01*
X108256024Y-105238654D01*
X108271930Y-105253070D01*
X108286346Y-105268976D01*
X108299134Y-105286219D01*
X108310170Y-105304632D01*
X108319349Y-105324038D01*
X108326581Y-105344250D01*
X108331797Y-105365074D01*
X108334947Y-105386309D01*
X108336000Y-105407750D01*
X108336000Y-105920250D01*
X108334947Y-105941691D01*
X108331797Y-105962926D01*
X108326581Y-105983750D01*
X108319349Y-106003962D01*
X108310170Y-106023368D01*
X108299134Y-106041781D01*
X108286346Y-106059024D01*
X108271930Y-106074930D01*
X108256024Y-106089346D01*
X108238781Y-106102134D01*
X108220368Y-106113170D01*
X108200962Y-106122349D01*
X108180750Y-106129581D01*
X108159926Y-106134797D01*
X108138691Y-106137947D01*
X108117250Y-106139000D01*
X107679750Y-106139000D01*
X107658309Y-106137947D01*
X107637074Y-106134797D01*
X107616250Y-106129581D01*
X107596038Y-106122349D01*
X107576632Y-106113170D01*
X107558219Y-106102134D01*
X107540976Y-106089346D01*
X107525070Y-106074930D01*
X107510654Y-106059024D01*
X107497866Y-106041781D01*
X107486830Y-106023368D01*
X107477651Y-106003962D01*
X107470419Y-105983750D01*
X107465203Y-105962926D01*
X107462053Y-105941691D01*
X107461000Y-105920250D01*
X107461000Y-105407750D01*
X107462053Y-105386309D01*
X107465203Y-105365074D01*
X107470419Y-105344250D01*
X107477651Y-105324038D01*
X107486830Y-105304632D01*
X107497866Y-105286219D01*
X107510654Y-105268976D01*
X107525070Y-105253070D01*
X107540976Y-105238654D01*
X107558219Y-105225866D01*
X107576632Y-105214830D01*
X107596038Y-105205651D01*
X107616250Y-105198419D01*
X107637074Y-105193203D01*
X107658309Y-105190053D01*
X107679750Y-105189000D01*
X108117250Y-105189000D01*
X108138691Y-105190053D01*
X108138691Y-105190053D01*
G37*
D12*
X107898500Y-105664000D03*
G04 #@! TD*
D11*
G04 #@! TO.C,R3*
G36*
X109459691Y-115096053D02*
X109480926Y-115099203D01*
X109501750Y-115104419D01*
X109521962Y-115111651D01*
X109541368Y-115120830D01*
X109559781Y-115131866D01*
X109577024Y-115144654D01*
X109592930Y-115159070D01*
X109607346Y-115174976D01*
X109620134Y-115192219D01*
X109631170Y-115210632D01*
X109640349Y-115230038D01*
X109647581Y-115250250D01*
X109652797Y-115271074D01*
X109655947Y-115292309D01*
X109657000Y-115313750D01*
X109657000Y-115826250D01*
X109655947Y-115847691D01*
X109652797Y-115868926D01*
X109647581Y-115889750D01*
X109640349Y-115909962D01*
X109631170Y-115929368D01*
X109620134Y-115947781D01*
X109607346Y-115965024D01*
X109592930Y-115980930D01*
X109577024Y-115995346D01*
X109559781Y-116008134D01*
X109541368Y-116019170D01*
X109521962Y-116028349D01*
X109501750Y-116035581D01*
X109480926Y-116040797D01*
X109459691Y-116043947D01*
X109438250Y-116045000D01*
X109000750Y-116045000D01*
X108979309Y-116043947D01*
X108958074Y-116040797D01*
X108937250Y-116035581D01*
X108917038Y-116028349D01*
X108897632Y-116019170D01*
X108879219Y-116008134D01*
X108861976Y-115995346D01*
X108846070Y-115980930D01*
X108831654Y-115965024D01*
X108818866Y-115947781D01*
X108807830Y-115929368D01*
X108798651Y-115909962D01*
X108791419Y-115889750D01*
X108786203Y-115868926D01*
X108783053Y-115847691D01*
X108782000Y-115826250D01*
X108782000Y-115313750D01*
X108783053Y-115292309D01*
X108786203Y-115271074D01*
X108791419Y-115250250D01*
X108798651Y-115230038D01*
X108807830Y-115210632D01*
X108818866Y-115192219D01*
X108831654Y-115174976D01*
X108846070Y-115159070D01*
X108861976Y-115144654D01*
X108879219Y-115131866D01*
X108897632Y-115120830D01*
X108917038Y-115111651D01*
X108937250Y-115104419D01*
X108958074Y-115099203D01*
X108979309Y-115096053D01*
X109000750Y-115095000D01*
X109438250Y-115095000D01*
X109459691Y-115096053D01*
X109459691Y-115096053D01*
G37*
D12*
X109219500Y-115570000D03*
D11*
G36*
X107884691Y-115096053D02*
X107905926Y-115099203D01*
X107926750Y-115104419D01*
X107946962Y-115111651D01*
X107966368Y-115120830D01*
X107984781Y-115131866D01*
X108002024Y-115144654D01*
X108017930Y-115159070D01*
X108032346Y-115174976D01*
X108045134Y-115192219D01*
X108056170Y-115210632D01*
X108065349Y-115230038D01*
X108072581Y-115250250D01*
X108077797Y-115271074D01*
X108080947Y-115292309D01*
X108082000Y-115313750D01*
X108082000Y-115826250D01*
X108080947Y-115847691D01*
X108077797Y-115868926D01*
X108072581Y-115889750D01*
X108065349Y-115909962D01*
X108056170Y-115929368D01*
X108045134Y-115947781D01*
X108032346Y-115965024D01*
X108017930Y-115980930D01*
X108002024Y-115995346D01*
X107984781Y-116008134D01*
X107966368Y-116019170D01*
X107946962Y-116028349D01*
X107926750Y-116035581D01*
X107905926Y-116040797D01*
X107884691Y-116043947D01*
X107863250Y-116045000D01*
X107425750Y-116045000D01*
X107404309Y-116043947D01*
X107383074Y-116040797D01*
X107362250Y-116035581D01*
X107342038Y-116028349D01*
X107322632Y-116019170D01*
X107304219Y-116008134D01*
X107286976Y-115995346D01*
X107271070Y-115980930D01*
X107256654Y-115965024D01*
X107243866Y-115947781D01*
X107232830Y-115929368D01*
X107223651Y-115909962D01*
X107216419Y-115889750D01*
X107211203Y-115868926D01*
X107208053Y-115847691D01*
X107207000Y-115826250D01*
X107207000Y-115313750D01*
X107208053Y-115292309D01*
X107211203Y-115271074D01*
X107216419Y-115250250D01*
X107223651Y-115230038D01*
X107232830Y-115210632D01*
X107243866Y-115192219D01*
X107256654Y-115174976D01*
X107271070Y-115159070D01*
X107286976Y-115144654D01*
X107304219Y-115131866D01*
X107322632Y-115120830D01*
X107342038Y-115111651D01*
X107362250Y-115104419D01*
X107383074Y-115099203D01*
X107404309Y-115096053D01*
X107425750Y-115095000D01*
X107863250Y-115095000D01*
X107884691Y-115096053D01*
X107884691Y-115096053D01*
G37*
D12*
X107644500Y-115570000D03*
G04 #@! TD*
M02*
