G04 #@! TF.GenerationSoftware,KiCad,Pcbnew,5.0.1-33cea8e~66~ubuntu18.04.1*
G04 #@! TF.CreationDate,2018-10-18T18:40:30+09:00*
G04 #@! TF.ProjectId,touch_relay_jack,746F7563685F72656C61795F6A61636B,rev?*
G04 #@! TF.SameCoordinates,Original*
G04 #@! TF.FileFunction,Copper,L2,Bot,Signal*
G04 #@! TF.FilePolarity,Positive*
%FSLAX46Y46*%
G04 Gerber Fmt 4.6, Leading zero omitted, Abs format (unit mm)*
G04 Created by KiCad (PCBNEW 5.0.1-33cea8e~66~ubuntu18.04.1) date 2018年10月18日 18時40分30秒*
%MOMM*%
%LPD*%
G01*
G04 APERTURE LIST*
G04 #@! TA.AperFunction,ComponentPad*
%ADD10R,1.524000X1.524000*%
G04 #@! TD*
G04 #@! TA.AperFunction,ComponentPad*
%ADD11C,1.524000*%
G04 #@! TD*
G04 #@! TA.AperFunction,ComponentPad*
%ADD12C,7.600000*%
G04 #@! TD*
G04 #@! TA.AperFunction,ComponentPad*
%ADD13C,1.900000*%
G04 #@! TD*
G04 #@! TA.AperFunction,ComponentPad*
%ADD14R,1.900000X1.900000*%
G04 #@! TD*
G04 #@! TA.AperFunction,ComponentPad*
%ADD15C,6.400000*%
G04 #@! TD*
G04 #@! TA.AperFunction,Conductor*
%ADD16C,0.250000*%
G04 #@! TD*
G04 #@! TA.AperFunction,Conductor*
%ADD17C,0.254000*%
G04 #@! TD*
G04 APERTURE END LIST*
D10*
G04 #@! TO.P,A1,1*
G04 #@! TO.N,Net-(A1-Pad1)*
X105231000Y-88721000D03*
D11*
G04 #@! TO.P,A1,2*
G04 #@! TO.N,Net-(A1-Pad2)*
X105231000Y-91261000D03*
G04 #@! TO.P,A1,3*
G04 #@! TO.N,GND*
X105231000Y-93801000D03*
G04 #@! TO.P,A1,4*
X105231000Y-96341000D03*
G04 #@! TO.P,A1,5*
G04 #@! TO.N,Net-(A1-Pad5)*
X105231000Y-98881000D03*
G04 #@! TO.P,A1,6*
G04 #@! TO.N,Net-(A1-Pad6)*
X105231000Y-101421000D03*
G04 #@! TO.P,A1,7*
G04 #@! TO.N,Relay*
X105231000Y-103961000D03*
G04 #@! TO.P,A1,8*
G04 #@! TO.N,Net-(A1-Pad8)*
X105231000Y-106501000D03*
G04 #@! TO.P,A1,9*
G04 #@! TO.N,Net-(A1-Pad9)*
X105231000Y-109041000D03*
G04 #@! TO.P,A1,10*
G04 #@! TO.N,Net-(A1-Pad10)*
X105231000Y-111581000D03*
G04 #@! TO.P,A1,11*
G04 #@! TO.N,Net-(A1-Pad11)*
X105231000Y-114121000D03*
G04 #@! TO.P,A1,12*
G04 #@! TO.N,Net-(A1-Pad12)*
X105231000Y-116661000D03*
G04 #@! TO.P,A1,13*
G04 #@! TO.N,Net-(A1-Pad13)*
X120471000Y-116661000D03*
G04 #@! TO.P,A1,14*
G04 #@! TO.N,Net-(A1-Pad14)*
X120471000Y-114121000D03*
G04 #@! TO.P,A1,15*
G04 #@! TO.N,Net-(A1-Pad15)*
X120471000Y-111581000D03*
G04 #@! TO.P,A1,16*
G04 #@! TO.N,Net-(A1-Pad16)*
X120471000Y-109041000D03*
G04 #@! TO.P,A1,17*
G04 #@! TO.N,Net-(A1-Pad17)*
X120471000Y-106501000D03*
G04 #@! TO.P,A1,18*
G04 #@! TO.N,Net-(A1-Pad18)*
X120471000Y-103961000D03*
G04 #@! TO.P,A1,19*
G04 #@! TO.N,Net-(A1-Pad19)*
X120471000Y-101421000D03*
G04 #@! TO.P,A1,20*
G04 #@! TO.N,Net-(A1-Pad20)*
X120471000Y-98881000D03*
G04 #@! TO.P,A1,21*
G04 #@! TO.N,+5V*
X120471000Y-96341000D03*
G04 #@! TO.P,A1,22*
G04 #@! TO.N,Net-(A1-Pad22)*
X120471000Y-93801000D03*
G04 #@! TO.P,A1,23*
G04 #@! TO.N,GND*
X120471000Y-91261000D03*
G04 #@! TO.P,A1,24*
G04 #@! TO.N,Net-(A1-Pad24)*
X120471000Y-88721000D03*
G04 #@! TD*
D12*
G04 #@! TO.P,H1,1*
G04 #@! TO.N,Net-(A1-Pad11)*
X88900000Y-101600000D03*
G04 #@! TD*
D13*
G04 #@! TO.P,J1,T*
G04 #@! TO.N,Net-(J1-PadT)*
X115930000Y-89170000D03*
X110130000Y-89170000D03*
D14*
G04 #@! TO.P,J1,R*
G04 #@! TO.N,Net-(J1-PadR)*
X115280000Y-96670000D03*
D13*
G04 #@! TO.P,J1,S*
X110780000Y-96670000D03*
G04 #@! TD*
D10*
G04 #@! TO.P,K1,1*
G04 #@! TO.N,Net-(J1-PadT)*
X112014000Y-116332000D03*
D11*
G04 #@! TO.P,K1,2*
G04 #@! TO.N,Net-(K1-Pad2)*
X117094000Y-116332000D03*
G04 #@! TO.P,K1,3*
G04 #@! TO.N,Net-(D1-Pad2)*
X112014000Y-113792000D03*
G04 #@! TO.P,K1,4*
G04 #@! TO.N,+5V*
X117094000Y-113792000D03*
G04 #@! TO.P,K1,5*
G04 #@! TO.N,Net-(J1-PadR)*
X112014000Y-106172000D03*
G04 #@! TO.P,K1,6*
X117094000Y-106172000D03*
G04 #@! TD*
D15*
G04 #@! TO.P,H2,1*
G04 #@! TO.N,Net-(A1-Pad11)*
X97790000Y-101600000D03*
G04 #@! TD*
D16*
G04 #@! TO.N,GND*
X105231000Y-96341000D02*
X105231000Y-93801000D01*
G04 #@! TO.N,Net-(A1-Pad11)*
X97790000Y-101600000D02*
X97790000Y-106680000D01*
X97790000Y-106680000D02*
X105231000Y-114121000D01*
G04 #@! TO.N,Net-(J1-PadT)*
X112014000Y-116332000D02*
X112014000Y-115244700D01*
X112014000Y-115244700D02*
X111878100Y-115244700D01*
X111878100Y-115244700D02*
X109461400Y-112828000D01*
X109461400Y-112828000D02*
X109461400Y-89838600D01*
X109461400Y-89838600D02*
X110130000Y-89170000D01*
G04 #@! TO.N,Net-(J1-PadR)*
X112014000Y-106172000D02*
X110780000Y-104938000D01*
X110780000Y-104938000D02*
X110780000Y-96670000D01*
G04 #@! TD*
D17*
G04 #@! TO.N,GND*
G36*
X121210001Y-87515002D02*
X120748881Y-87324000D01*
X120193119Y-87324000D01*
X119679663Y-87536680D01*
X119286680Y-87929663D01*
X119074000Y-88443119D01*
X119074000Y-88998881D01*
X119286680Y-89512337D01*
X119679663Y-89905320D01*
X119870647Y-89984428D01*
X119739857Y-90038603D01*
X119670392Y-90280787D01*
X120471000Y-91081395D01*
X120485143Y-91067253D01*
X120664748Y-91246858D01*
X120650605Y-91261000D01*
X120664748Y-91275143D01*
X120485143Y-91454748D01*
X120471000Y-91440605D01*
X119670392Y-92241213D01*
X119739857Y-92483397D01*
X119880393Y-92533535D01*
X119679663Y-92616680D01*
X119286680Y-93009663D01*
X119074000Y-93523119D01*
X119074000Y-94078881D01*
X119286680Y-94592337D01*
X119679663Y-94985320D01*
X119886513Y-95071000D01*
X119679663Y-95156680D01*
X119286680Y-95549663D01*
X119074000Y-96063119D01*
X119074000Y-96618881D01*
X119286680Y-97132337D01*
X119679663Y-97525320D01*
X119886513Y-97611000D01*
X119679663Y-97696680D01*
X119286680Y-98089663D01*
X119074000Y-98603119D01*
X119074000Y-99158881D01*
X119286680Y-99672337D01*
X119679663Y-100065320D01*
X119886513Y-100151000D01*
X119679663Y-100236680D01*
X119286680Y-100629663D01*
X119074000Y-101143119D01*
X119074000Y-101698881D01*
X119286680Y-102212337D01*
X119679663Y-102605320D01*
X119886513Y-102691000D01*
X119679663Y-102776680D01*
X119286680Y-103169663D01*
X119074000Y-103683119D01*
X119074000Y-104238881D01*
X119286680Y-104752337D01*
X119679663Y-105145320D01*
X119886513Y-105231000D01*
X119679663Y-105316680D01*
X119286680Y-105709663D01*
X119074000Y-106223119D01*
X119074000Y-106778881D01*
X119286680Y-107292337D01*
X119679663Y-107685320D01*
X119886513Y-107771000D01*
X119679663Y-107856680D01*
X119286680Y-108249663D01*
X119074000Y-108763119D01*
X119074000Y-109318881D01*
X119286680Y-109832337D01*
X119679663Y-110225320D01*
X119886513Y-110311000D01*
X119679663Y-110396680D01*
X119286680Y-110789663D01*
X119074000Y-111303119D01*
X119074000Y-111858881D01*
X119286680Y-112372337D01*
X119679663Y-112765320D01*
X119886513Y-112851000D01*
X119679663Y-112936680D01*
X119286680Y-113329663D01*
X119074000Y-113843119D01*
X119074000Y-114398881D01*
X119286680Y-114912337D01*
X119679663Y-115305320D01*
X119886513Y-115391000D01*
X119679663Y-115476680D01*
X119286680Y-115869663D01*
X119074000Y-116383119D01*
X119074000Y-116938881D01*
X119265001Y-117400000D01*
X118001657Y-117400000D01*
X118278320Y-117123337D01*
X118491000Y-116609881D01*
X118491000Y-116054119D01*
X118278320Y-115540663D01*
X117885337Y-115147680D01*
X117678487Y-115062000D01*
X117885337Y-114976320D01*
X118278320Y-114583337D01*
X118491000Y-114069881D01*
X118491000Y-113514119D01*
X118278320Y-113000663D01*
X117885337Y-112607680D01*
X117371881Y-112395000D01*
X116816119Y-112395000D01*
X116302663Y-112607680D01*
X115909680Y-113000663D01*
X115697000Y-113514119D01*
X115697000Y-114069881D01*
X115909680Y-114583337D01*
X116302663Y-114976320D01*
X116509513Y-115062000D01*
X116302663Y-115147680D01*
X115909680Y-115540663D01*
X115697000Y-116054119D01*
X115697000Y-116609881D01*
X115909680Y-117123337D01*
X116186343Y-117400000D01*
X113335245Y-117400000D01*
X113374157Y-117341765D01*
X113423440Y-117094000D01*
X113423440Y-115570000D01*
X113374157Y-115322235D01*
X113233809Y-115112191D01*
X113023765Y-114971843D01*
X112845310Y-114936347D01*
X113198320Y-114583337D01*
X113411000Y-114069881D01*
X113411000Y-113514119D01*
X113198320Y-113000663D01*
X112805337Y-112607680D01*
X112291881Y-112395000D01*
X111736119Y-112395000D01*
X111222663Y-112607680D01*
X110829680Y-113000663D01*
X110794294Y-113086093D01*
X110221400Y-112513199D01*
X110221400Y-105469959D01*
X110232071Y-105485929D01*
X110295530Y-105528331D01*
X110629980Y-105862782D01*
X110617000Y-105894119D01*
X110617000Y-106449881D01*
X110829680Y-106963337D01*
X111222663Y-107356320D01*
X111736119Y-107569000D01*
X112291881Y-107569000D01*
X112805337Y-107356320D01*
X113198320Y-106963337D01*
X113411000Y-106449881D01*
X113411000Y-105894119D01*
X115697000Y-105894119D01*
X115697000Y-106449881D01*
X115909680Y-106963337D01*
X116302663Y-107356320D01*
X116816119Y-107569000D01*
X117371881Y-107569000D01*
X117885337Y-107356320D01*
X118278320Y-106963337D01*
X118491000Y-106449881D01*
X118491000Y-105894119D01*
X118278320Y-105380663D01*
X117885337Y-104987680D01*
X117371881Y-104775000D01*
X116816119Y-104775000D01*
X116302663Y-104987680D01*
X115909680Y-105380663D01*
X115697000Y-105894119D01*
X113411000Y-105894119D01*
X113198320Y-105380663D01*
X112805337Y-104987680D01*
X112291881Y-104775000D01*
X111736119Y-104775000D01*
X111704782Y-104787980D01*
X111540000Y-104623199D01*
X111540000Y-100901431D01*
X113081000Y-100901431D01*
X113081000Y-101790569D01*
X113421259Y-102612026D01*
X114049974Y-103240741D01*
X114871431Y-103581000D01*
X115760569Y-103581000D01*
X116582026Y-103240741D01*
X117210741Y-102612026D01*
X117551000Y-101790569D01*
X117551000Y-100901431D01*
X117210741Y-100079974D01*
X116582026Y-99451259D01*
X115760569Y-99111000D01*
X114871431Y-99111000D01*
X114049974Y-99451259D01*
X113421259Y-100079974D01*
X113081000Y-100901431D01*
X111540000Y-100901431D01*
X111540000Y-98070789D01*
X111677830Y-98013698D01*
X112123698Y-97567830D01*
X112365000Y-96985276D01*
X112365000Y-96354724D01*
X112123698Y-95772170D01*
X112071528Y-95720000D01*
X113682560Y-95720000D01*
X113682560Y-97620000D01*
X113731843Y-97867765D01*
X113872191Y-98077809D01*
X114082235Y-98218157D01*
X114330000Y-98267440D01*
X116230000Y-98267440D01*
X116477765Y-98218157D01*
X116687809Y-98077809D01*
X116828157Y-97867765D01*
X116877440Y-97620000D01*
X116877440Y-95720000D01*
X116828157Y-95472235D01*
X116687809Y-95262191D01*
X116477765Y-95121843D01*
X116230000Y-95072560D01*
X114330000Y-95072560D01*
X114082235Y-95121843D01*
X113872191Y-95262191D01*
X113731843Y-95472235D01*
X113682560Y-95720000D01*
X112071528Y-95720000D01*
X111677830Y-95326302D01*
X111095276Y-95085000D01*
X110464724Y-95085000D01*
X110221400Y-95185788D01*
X110221400Y-93770689D01*
X110304234Y-93805000D01*
X110755766Y-93805000D01*
X111172926Y-93632207D01*
X111492207Y-93312926D01*
X111665000Y-92895766D01*
X111665000Y-92444234D01*
X114395000Y-92444234D01*
X114395000Y-92895766D01*
X114567793Y-93312926D01*
X114887074Y-93632207D01*
X115304234Y-93805000D01*
X115755766Y-93805000D01*
X116172926Y-93632207D01*
X116492207Y-93312926D01*
X116665000Y-92895766D01*
X116665000Y-92444234D01*
X116492207Y-92027074D01*
X116172926Y-91707793D01*
X115755766Y-91535000D01*
X115304234Y-91535000D01*
X114887074Y-91707793D01*
X114567793Y-92027074D01*
X114395000Y-92444234D01*
X111665000Y-92444234D01*
X111492207Y-92027074D01*
X111172926Y-91707793D01*
X110755766Y-91535000D01*
X110304234Y-91535000D01*
X110221400Y-91569311D01*
X110221400Y-91053302D01*
X119061856Y-91053302D01*
X119089638Y-91608368D01*
X119248603Y-91992143D01*
X119490787Y-92061608D01*
X120291395Y-91261000D01*
X119490787Y-90460392D01*
X119248603Y-90529857D01*
X119061856Y-91053302D01*
X110221400Y-91053302D01*
X110221400Y-90755000D01*
X110445276Y-90755000D01*
X111027830Y-90513698D01*
X111473698Y-90067830D01*
X111715000Y-89485276D01*
X111715000Y-88854724D01*
X114345000Y-88854724D01*
X114345000Y-89485276D01*
X114586302Y-90067830D01*
X115032170Y-90513698D01*
X115614724Y-90755000D01*
X116245276Y-90755000D01*
X116827830Y-90513698D01*
X117273698Y-90067830D01*
X117515000Y-89485276D01*
X117515000Y-88854724D01*
X117273698Y-88272170D01*
X116827830Y-87826302D01*
X116245276Y-87585000D01*
X115614724Y-87585000D01*
X115032170Y-87826302D01*
X114586302Y-88272170D01*
X114345000Y-88854724D01*
X111715000Y-88854724D01*
X111473698Y-88272170D01*
X111027830Y-87826302D01*
X110445276Y-87585000D01*
X109814724Y-87585000D01*
X109232170Y-87826302D01*
X108786302Y-88272170D01*
X108545000Y-88854724D01*
X108545000Y-89485276D01*
X108688082Y-89830706D01*
X108686512Y-89838600D01*
X108701401Y-89913452D01*
X108701400Y-112753153D01*
X108686512Y-112828000D01*
X108701400Y-112902847D01*
X108701400Y-112902851D01*
X108745496Y-113124536D01*
X108913471Y-113375929D01*
X108976930Y-113418331D01*
X110744763Y-115186165D01*
X110653843Y-115322235D01*
X110604560Y-115570000D01*
X110604560Y-117094000D01*
X110653843Y-117341765D01*
X110692755Y-117400000D01*
X106436999Y-117400000D01*
X106628000Y-116938881D01*
X106628000Y-116383119D01*
X106415320Y-115869663D01*
X106022337Y-115476680D01*
X105815487Y-115391000D01*
X106022337Y-115305320D01*
X106415320Y-114912337D01*
X106628000Y-114398881D01*
X106628000Y-113843119D01*
X106415320Y-113329663D01*
X106022337Y-112936680D01*
X105815487Y-112851000D01*
X106022337Y-112765320D01*
X106415320Y-112372337D01*
X106628000Y-111858881D01*
X106628000Y-111303119D01*
X106415320Y-110789663D01*
X106022337Y-110396680D01*
X105815487Y-110311000D01*
X106022337Y-110225320D01*
X106415320Y-109832337D01*
X106628000Y-109318881D01*
X106628000Y-108763119D01*
X106415320Y-108249663D01*
X106022337Y-107856680D01*
X105815487Y-107771000D01*
X106022337Y-107685320D01*
X106415320Y-107292337D01*
X106628000Y-106778881D01*
X106628000Y-106223119D01*
X106415320Y-105709663D01*
X106022337Y-105316680D01*
X105815487Y-105231000D01*
X106022337Y-105145320D01*
X106415320Y-104752337D01*
X106628000Y-104238881D01*
X106628000Y-103683119D01*
X106415320Y-103169663D01*
X106022337Y-102776680D01*
X105815487Y-102691000D01*
X106022337Y-102605320D01*
X106415320Y-102212337D01*
X106628000Y-101698881D01*
X106628000Y-101143119D01*
X106415320Y-100629663D01*
X106022337Y-100236680D01*
X105815487Y-100151000D01*
X106022337Y-100065320D01*
X106415320Y-99672337D01*
X106628000Y-99158881D01*
X106628000Y-98603119D01*
X106415320Y-98089663D01*
X106022337Y-97696680D01*
X105831353Y-97617572D01*
X105962143Y-97563397D01*
X106031608Y-97321213D01*
X105231000Y-96520605D01*
X104430392Y-97321213D01*
X104499857Y-97563397D01*
X104640393Y-97613535D01*
X104439663Y-97696680D01*
X104046680Y-98089663D01*
X103834000Y-98603119D01*
X103834000Y-99158881D01*
X104046680Y-99672337D01*
X104439663Y-100065320D01*
X104646513Y-100151000D01*
X104439663Y-100236680D01*
X104046680Y-100629663D01*
X103834000Y-101143119D01*
X103834000Y-101698881D01*
X104046680Y-102212337D01*
X104439663Y-102605320D01*
X104646513Y-102691000D01*
X104439663Y-102776680D01*
X104046680Y-103169663D01*
X103834000Y-103683119D01*
X103834000Y-104238881D01*
X104046680Y-104752337D01*
X104439663Y-105145320D01*
X104646513Y-105231000D01*
X104439663Y-105316680D01*
X104046680Y-105709663D01*
X103834000Y-106223119D01*
X103834000Y-106778881D01*
X104046680Y-107292337D01*
X104439663Y-107685320D01*
X104646513Y-107771000D01*
X104439663Y-107856680D01*
X104046680Y-108249663D01*
X103834000Y-108763119D01*
X103834000Y-109318881D01*
X104046680Y-109832337D01*
X104439663Y-110225320D01*
X104646513Y-110311000D01*
X104439663Y-110396680D01*
X104046680Y-110789663D01*
X103834000Y-111303119D01*
X103834000Y-111649198D01*
X98550000Y-106365199D01*
X98550000Y-105435000D01*
X98552829Y-105435000D01*
X99962353Y-104851156D01*
X101041156Y-103772353D01*
X101625000Y-102362829D01*
X101625000Y-100837171D01*
X101041156Y-99427647D01*
X99962353Y-98348844D01*
X98552829Y-97765000D01*
X97027171Y-97765000D01*
X95617647Y-98348844D01*
X94538844Y-99427647D01*
X93955000Y-100837171D01*
X93955000Y-102362829D01*
X94538844Y-103772353D01*
X95617647Y-104851156D01*
X97027171Y-105435000D01*
X97030001Y-105435000D01*
X97030001Y-106605148D01*
X97015112Y-106680000D01*
X97030001Y-106754852D01*
X97074097Y-106976537D01*
X97242072Y-107227929D01*
X97305528Y-107270329D01*
X103846980Y-113811782D01*
X103834000Y-113843119D01*
X103834000Y-114398881D01*
X104046680Y-114912337D01*
X104439663Y-115305320D01*
X104646513Y-115391000D01*
X104439663Y-115476680D01*
X104046680Y-115869663D01*
X103834000Y-116383119D01*
X103834000Y-116938881D01*
X104025001Y-117400000D01*
X83768000Y-117400000D01*
X83768000Y-114109431D01*
X84125000Y-114109431D01*
X84125000Y-114998569D01*
X84465259Y-115820026D01*
X85093974Y-116448741D01*
X85915431Y-116789000D01*
X86804569Y-116789000D01*
X87626026Y-116448741D01*
X88254741Y-115820026D01*
X88595000Y-114998569D01*
X88595000Y-114109431D01*
X88254741Y-113287974D01*
X87626026Y-112659259D01*
X86804569Y-112319000D01*
X85915431Y-112319000D01*
X85093974Y-112659259D01*
X84465259Y-113287974D01*
X84125000Y-114109431D01*
X83768000Y-114109431D01*
X83768000Y-100717824D01*
X84465000Y-100717824D01*
X84465000Y-102482176D01*
X85140188Y-104112226D01*
X86387774Y-105359812D01*
X88017824Y-106035000D01*
X89782176Y-106035000D01*
X91412226Y-105359812D01*
X92659812Y-104112226D01*
X93335000Y-102482176D01*
X93335000Y-100717824D01*
X92659812Y-99087774D01*
X91412226Y-97840188D01*
X89782176Y-97165000D01*
X88017824Y-97165000D01*
X86387774Y-97840188D01*
X85140188Y-99087774D01*
X84465000Y-100717824D01*
X83768000Y-100717824D01*
X83768000Y-96133302D01*
X103821856Y-96133302D01*
X103849638Y-96688368D01*
X104008603Y-97072143D01*
X104250787Y-97141608D01*
X105051395Y-96341000D01*
X105410605Y-96341000D01*
X106211213Y-97141608D01*
X106453397Y-97072143D01*
X106640144Y-96548698D01*
X106612362Y-95993632D01*
X106453397Y-95609857D01*
X106211213Y-95540392D01*
X105410605Y-96341000D01*
X105051395Y-96341000D01*
X104250787Y-95540392D01*
X104008603Y-95609857D01*
X103821856Y-96133302D01*
X83768000Y-96133302D01*
X83768000Y-94781213D01*
X104430392Y-94781213D01*
X104499857Y-95023397D01*
X104623344Y-95067453D01*
X104499857Y-95118603D01*
X104430392Y-95360787D01*
X105231000Y-96161395D01*
X106031608Y-95360787D01*
X105962143Y-95118603D01*
X105838656Y-95074547D01*
X105962143Y-95023397D01*
X106031608Y-94781213D01*
X105231000Y-93980605D01*
X104430392Y-94781213D01*
X83768000Y-94781213D01*
X83768000Y-93593302D01*
X103821856Y-93593302D01*
X103849638Y-94148368D01*
X104008603Y-94532143D01*
X104250787Y-94601608D01*
X105051395Y-93801000D01*
X105410605Y-93801000D01*
X106211213Y-94601608D01*
X106453397Y-94532143D01*
X106640144Y-94008698D01*
X106612362Y-93453632D01*
X106453397Y-93069857D01*
X106211213Y-93000392D01*
X105410605Y-93801000D01*
X105051395Y-93801000D01*
X104250787Y-93000392D01*
X104008603Y-93069857D01*
X103821856Y-93593302D01*
X83768000Y-93593302D01*
X83768000Y-87693431D01*
X84125000Y-87693431D01*
X84125000Y-88582569D01*
X84465259Y-89404026D01*
X85093974Y-90032741D01*
X85915431Y-90373000D01*
X86804569Y-90373000D01*
X87626026Y-90032741D01*
X88254741Y-89404026D01*
X88595000Y-88582569D01*
X88595000Y-87959000D01*
X103821560Y-87959000D01*
X103821560Y-89483000D01*
X103870843Y-89730765D01*
X104011191Y-89940809D01*
X104221235Y-90081157D01*
X104399690Y-90116653D01*
X104046680Y-90469663D01*
X103834000Y-90983119D01*
X103834000Y-91538881D01*
X104046680Y-92052337D01*
X104439663Y-92445320D01*
X104630647Y-92524428D01*
X104499857Y-92578603D01*
X104430392Y-92820787D01*
X105231000Y-93621395D01*
X106031608Y-92820787D01*
X105962143Y-92578603D01*
X105821607Y-92528465D01*
X106022337Y-92445320D01*
X106415320Y-92052337D01*
X106628000Y-91538881D01*
X106628000Y-90983119D01*
X106415320Y-90469663D01*
X106062310Y-90116653D01*
X106240765Y-90081157D01*
X106450809Y-89940809D01*
X106591157Y-89730765D01*
X106640440Y-89483000D01*
X106640440Y-87959000D01*
X106591157Y-87711235D01*
X106450809Y-87501191D01*
X106240765Y-87360843D01*
X105993000Y-87311560D01*
X104469000Y-87311560D01*
X104221235Y-87360843D01*
X104011191Y-87501191D01*
X103870843Y-87711235D01*
X103821560Y-87959000D01*
X88595000Y-87959000D01*
X88595000Y-87693431D01*
X88254741Y-86871974D01*
X87626026Y-86243259D01*
X86804569Y-85903000D01*
X85915431Y-85903000D01*
X85093974Y-86243259D01*
X84465259Y-86871974D01*
X84125000Y-87693431D01*
X83768000Y-87693431D01*
X83768000Y-85546000D01*
X121210001Y-85546000D01*
X121210001Y-87515002D01*
X121210001Y-87515002D01*
G37*
X121210001Y-87515002D02*
X120748881Y-87324000D01*
X120193119Y-87324000D01*
X119679663Y-87536680D01*
X119286680Y-87929663D01*
X119074000Y-88443119D01*
X119074000Y-88998881D01*
X119286680Y-89512337D01*
X119679663Y-89905320D01*
X119870647Y-89984428D01*
X119739857Y-90038603D01*
X119670392Y-90280787D01*
X120471000Y-91081395D01*
X120485143Y-91067253D01*
X120664748Y-91246858D01*
X120650605Y-91261000D01*
X120664748Y-91275143D01*
X120485143Y-91454748D01*
X120471000Y-91440605D01*
X119670392Y-92241213D01*
X119739857Y-92483397D01*
X119880393Y-92533535D01*
X119679663Y-92616680D01*
X119286680Y-93009663D01*
X119074000Y-93523119D01*
X119074000Y-94078881D01*
X119286680Y-94592337D01*
X119679663Y-94985320D01*
X119886513Y-95071000D01*
X119679663Y-95156680D01*
X119286680Y-95549663D01*
X119074000Y-96063119D01*
X119074000Y-96618881D01*
X119286680Y-97132337D01*
X119679663Y-97525320D01*
X119886513Y-97611000D01*
X119679663Y-97696680D01*
X119286680Y-98089663D01*
X119074000Y-98603119D01*
X119074000Y-99158881D01*
X119286680Y-99672337D01*
X119679663Y-100065320D01*
X119886513Y-100151000D01*
X119679663Y-100236680D01*
X119286680Y-100629663D01*
X119074000Y-101143119D01*
X119074000Y-101698881D01*
X119286680Y-102212337D01*
X119679663Y-102605320D01*
X119886513Y-102691000D01*
X119679663Y-102776680D01*
X119286680Y-103169663D01*
X119074000Y-103683119D01*
X119074000Y-104238881D01*
X119286680Y-104752337D01*
X119679663Y-105145320D01*
X119886513Y-105231000D01*
X119679663Y-105316680D01*
X119286680Y-105709663D01*
X119074000Y-106223119D01*
X119074000Y-106778881D01*
X119286680Y-107292337D01*
X119679663Y-107685320D01*
X119886513Y-107771000D01*
X119679663Y-107856680D01*
X119286680Y-108249663D01*
X119074000Y-108763119D01*
X119074000Y-109318881D01*
X119286680Y-109832337D01*
X119679663Y-110225320D01*
X119886513Y-110311000D01*
X119679663Y-110396680D01*
X119286680Y-110789663D01*
X119074000Y-111303119D01*
X119074000Y-111858881D01*
X119286680Y-112372337D01*
X119679663Y-112765320D01*
X119886513Y-112851000D01*
X119679663Y-112936680D01*
X119286680Y-113329663D01*
X119074000Y-113843119D01*
X119074000Y-114398881D01*
X119286680Y-114912337D01*
X119679663Y-115305320D01*
X119886513Y-115391000D01*
X119679663Y-115476680D01*
X119286680Y-115869663D01*
X119074000Y-116383119D01*
X119074000Y-116938881D01*
X119265001Y-117400000D01*
X118001657Y-117400000D01*
X118278320Y-117123337D01*
X118491000Y-116609881D01*
X118491000Y-116054119D01*
X118278320Y-115540663D01*
X117885337Y-115147680D01*
X117678487Y-115062000D01*
X117885337Y-114976320D01*
X118278320Y-114583337D01*
X118491000Y-114069881D01*
X118491000Y-113514119D01*
X118278320Y-113000663D01*
X117885337Y-112607680D01*
X117371881Y-112395000D01*
X116816119Y-112395000D01*
X116302663Y-112607680D01*
X115909680Y-113000663D01*
X115697000Y-113514119D01*
X115697000Y-114069881D01*
X115909680Y-114583337D01*
X116302663Y-114976320D01*
X116509513Y-115062000D01*
X116302663Y-115147680D01*
X115909680Y-115540663D01*
X115697000Y-116054119D01*
X115697000Y-116609881D01*
X115909680Y-117123337D01*
X116186343Y-117400000D01*
X113335245Y-117400000D01*
X113374157Y-117341765D01*
X113423440Y-117094000D01*
X113423440Y-115570000D01*
X113374157Y-115322235D01*
X113233809Y-115112191D01*
X113023765Y-114971843D01*
X112845310Y-114936347D01*
X113198320Y-114583337D01*
X113411000Y-114069881D01*
X113411000Y-113514119D01*
X113198320Y-113000663D01*
X112805337Y-112607680D01*
X112291881Y-112395000D01*
X111736119Y-112395000D01*
X111222663Y-112607680D01*
X110829680Y-113000663D01*
X110794294Y-113086093D01*
X110221400Y-112513199D01*
X110221400Y-105469959D01*
X110232071Y-105485929D01*
X110295530Y-105528331D01*
X110629980Y-105862782D01*
X110617000Y-105894119D01*
X110617000Y-106449881D01*
X110829680Y-106963337D01*
X111222663Y-107356320D01*
X111736119Y-107569000D01*
X112291881Y-107569000D01*
X112805337Y-107356320D01*
X113198320Y-106963337D01*
X113411000Y-106449881D01*
X113411000Y-105894119D01*
X115697000Y-105894119D01*
X115697000Y-106449881D01*
X115909680Y-106963337D01*
X116302663Y-107356320D01*
X116816119Y-107569000D01*
X117371881Y-107569000D01*
X117885337Y-107356320D01*
X118278320Y-106963337D01*
X118491000Y-106449881D01*
X118491000Y-105894119D01*
X118278320Y-105380663D01*
X117885337Y-104987680D01*
X117371881Y-104775000D01*
X116816119Y-104775000D01*
X116302663Y-104987680D01*
X115909680Y-105380663D01*
X115697000Y-105894119D01*
X113411000Y-105894119D01*
X113198320Y-105380663D01*
X112805337Y-104987680D01*
X112291881Y-104775000D01*
X111736119Y-104775000D01*
X111704782Y-104787980D01*
X111540000Y-104623199D01*
X111540000Y-100901431D01*
X113081000Y-100901431D01*
X113081000Y-101790569D01*
X113421259Y-102612026D01*
X114049974Y-103240741D01*
X114871431Y-103581000D01*
X115760569Y-103581000D01*
X116582026Y-103240741D01*
X117210741Y-102612026D01*
X117551000Y-101790569D01*
X117551000Y-100901431D01*
X117210741Y-100079974D01*
X116582026Y-99451259D01*
X115760569Y-99111000D01*
X114871431Y-99111000D01*
X114049974Y-99451259D01*
X113421259Y-100079974D01*
X113081000Y-100901431D01*
X111540000Y-100901431D01*
X111540000Y-98070789D01*
X111677830Y-98013698D01*
X112123698Y-97567830D01*
X112365000Y-96985276D01*
X112365000Y-96354724D01*
X112123698Y-95772170D01*
X112071528Y-95720000D01*
X113682560Y-95720000D01*
X113682560Y-97620000D01*
X113731843Y-97867765D01*
X113872191Y-98077809D01*
X114082235Y-98218157D01*
X114330000Y-98267440D01*
X116230000Y-98267440D01*
X116477765Y-98218157D01*
X116687809Y-98077809D01*
X116828157Y-97867765D01*
X116877440Y-97620000D01*
X116877440Y-95720000D01*
X116828157Y-95472235D01*
X116687809Y-95262191D01*
X116477765Y-95121843D01*
X116230000Y-95072560D01*
X114330000Y-95072560D01*
X114082235Y-95121843D01*
X113872191Y-95262191D01*
X113731843Y-95472235D01*
X113682560Y-95720000D01*
X112071528Y-95720000D01*
X111677830Y-95326302D01*
X111095276Y-95085000D01*
X110464724Y-95085000D01*
X110221400Y-95185788D01*
X110221400Y-93770689D01*
X110304234Y-93805000D01*
X110755766Y-93805000D01*
X111172926Y-93632207D01*
X111492207Y-93312926D01*
X111665000Y-92895766D01*
X111665000Y-92444234D01*
X114395000Y-92444234D01*
X114395000Y-92895766D01*
X114567793Y-93312926D01*
X114887074Y-93632207D01*
X115304234Y-93805000D01*
X115755766Y-93805000D01*
X116172926Y-93632207D01*
X116492207Y-93312926D01*
X116665000Y-92895766D01*
X116665000Y-92444234D01*
X116492207Y-92027074D01*
X116172926Y-91707793D01*
X115755766Y-91535000D01*
X115304234Y-91535000D01*
X114887074Y-91707793D01*
X114567793Y-92027074D01*
X114395000Y-92444234D01*
X111665000Y-92444234D01*
X111492207Y-92027074D01*
X111172926Y-91707793D01*
X110755766Y-91535000D01*
X110304234Y-91535000D01*
X110221400Y-91569311D01*
X110221400Y-91053302D01*
X119061856Y-91053302D01*
X119089638Y-91608368D01*
X119248603Y-91992143D01*
X119490787Y-92061608D01*
X120291395Y-91261000D01*
X119490787Y-90460392D01*
X119248603Y-90529857D01*
X119061856Y-91053302D01*
X110221400Y-91053302D01*
X110221400Y-90755000D01*
X110445276Y-90755000D01*
X111027830Y-90513698D01*
X111473698Y-90067830D01*
X111715000Y-89485276D01*
X111715000Y-88854724D01*
X114345000Y-88854724D01*
X114345000Y-89485276D01*
X114586302Y-90067830D01*
X115032170Y-90513698D01*
X115614724Y-90755000D01*
X116245276Y-90755000D01*
X116827830Y-90513698D01*
X117273698Y-90067830D01*
X117515000Y-89485276D01*
X117515000Y-88854724D01*
X117273698Y-88272170D01*
X116827830Y-87826302D01*
X116245276Y-87585000D01*
X115614724Y-87585000D01*
X115032170Y-87826302D01*
X114586302Y-88272170D01*
X114345000Y-88854724D01*
X111715000Y-88854724D01*
X111473698Y-88272170D01*
X111027830Y-87826302D01*
X110445276Y-87585000D01*
X109814724Y-87585000D01*
X109232170Y-87826302D01*
X108786302Y-88272170D01*
X108545000Y-88854724D01*
X108545000Y-89485276D01*
X108688082Y-89830706D01*
X108686512Y-89838600D01*
X108701401Y-89913452D01*
X108701400Y-112753153D01*
X108686512Y-112828000D01*
X108701400Y-112902847D01*
X108701400Y-112902851D01*
X108745496Y-113124536D01*
X108913471Y-113375929D01*
X108976930Y-113418331D01*
X110744763Y-115186165D01*
X110653843Y-115322235D01*
X110604560Y-115570000D01*
X110604560Y-117094000D01*
X110653843Y-117341765D01*
X110692755Y-117400000D01*
X106436999Y-117400000D01*
X106628000Y-116938881D01*
X106628000Y-116383119D01*
X106415320Y-115869663D01*
X106022337Y-115476680D01*
X105815487Y-115391000D01*
X106022337Y-115305320D01*
X106415320Y-114912337D01*
X106628000Y-114398881D01*
X106628000Y-113843119D01*
X106415320Y-113329663D01*
X106022337Y-112936680D01*
X105815487Y-112851000D01*
X106022337Y-112765320D01*
X106415320Y-112372337D01*
X106628000Y-111858881D01*
X106628000Y-111303119D01*
X106415320Y-110789663D01*
X106022337Y-110396680D01*
X105815487Y-110311000D01*
X106022337Y-110225320D01*
X106415320Y-109832337D01*
X106628000Y-109318881D01*
X106628000Y-108763119D01*
X106415320Y-108249663D01*
X106022337Y-107856680D01*
X105815487Y-107771000D01*
X106022337Y-107685320D01*
X106415320Y-107292337D01*
X106628000Y-106778881D01*
X106628000Y-106223119D01*
X106415320Y-105709663D01*
X106022337Y-105316680D01*
X105815487Y-105231000D01*
X106022337Y-105145320D01*
X106415320Y-104752337D01*
X106628000Y-104238881D01*
X106628000Y-103683119D01*
X106415320Y-103169663D01*
X106022337Y-102776680D01*
X105815487Y-102691000D01*
X106022337Y-102605320D01*
X106415320Y-102212337D01*
X106628000Y-101698881D01*
X106628000Y-101143119D01*
X106415320Y-100629663D01*
X106022337Y-100236680D01*
X105815487Y-100151000D01*
X106022337Y-100065320D01*
X106415320Y-99672337D01*
X106628000Y-99158881D01*
X106628000Y-98603119D01*
X106415320Y-98089663D01*
X106022337Y-97696680D01*
X105831353Y-97617572D01*
X105962143Y-97563397D01*
X106031608Y-97321213D01*
X105231000Y-96520605D01*
X104430392Y-97321213D01*
X104499857Y-97563397D01*
X104640393Y-97613535D01*
X104439663Y-97696680D01*
X104046680Y-98089663D01*
X103834000Y-98603119D01*
X103834000Y-99158881D01*
X104046680Y-99672337D01*
X104439663Y-100065320D01*
X104646513Y-100151000D01*
X104439663Y-100236680D01*
X104046680Y-100629663D01*
X103834000Y-101143119D01*
X103834000Y-101698881D01*
X104046680Y-102212337D01*
X104439663Y-102605320D01*
X104646513Y-102691000D01*
X104439663Y-102776680D01*
X104046680Y-103169663D01*
X103834000Y-103683119D01*
X103834000Y-104238881D01*
X104046680Y-104752337D01*
X104439663Y-105145320D01*
X104646513Y-105231000D01*
X104439663Y-105316680D01*
X104046680Y-105709663D01*
X103834000Y-106223119D01*
X103834000Y-106778881D01*
X104046680Y-107292337D01*
X104439663Y-107685320D01*
X104646513Y-107771000D01*
X104439663Y-107856680D01*
X104046680Y-108249663D01*
X103834000Y-108763119D01*
X103834000Y-109318881D01*
X104046680Y-109832337D01*
X104439663Y-110225320D01*
X104646513Y-110311000D01*
X104439663Y-110396680D01*
X104046680Y-110789663D01*
X103834000Y-111303119D01*
X103834000Y-111649198D01*
X98550000Y-106365199D01*
X98550000Y-105435000D01*
X98552829Y-105435000D01*
X99962353Y-104851156D01*
X101041156Y-103772353D01*
X101625000Y-102362829D01*
X101625000Y-100837171D01*
X101041156Y-99427647D01*
X99962353Y-98348844D01*
X98552829Y-97765000D01*
X97027171Y-97765000D01*
X95617647Y-98348844D01*
X94538844Y-99427647D01*
X93955000Y-100837171D01*
X93955000Y-102362829D01*
X94538844Y-103772353D01*
X95617647Y-104851156D01*
X97027171Y-105435000D01*
X97030001Y-105435000D01*
X97030001Y-106605148D01*
X97015112Y-106680000D01*
X97030001Y-106754852D01*
X97074097Y-106976537D01*
X97242072Y-107227929D01*
X97305528Y-107270329D01*
X103846980Y-113811782D01*
X103834000Y-113843119D01*
X103834000Y-114398881D01*
X104046680Y-114912337D01*
X104439663Y-115305320D01*
X104646513Y-115391000D01*
X104439663Y-115476680D01*
X104046680Y-115869663D01*
X103834000Y-116383119D01*
X103834000Y-116938881D01*
X104025001Y-117400000D01*
X83768000Y-117400000D01*
X83768000Y-114109431D01*
X84125000Y-114109431D01*
X84125000Y-114998569D01*
X84465259Y-115820026D01*
X85093974Y-116448741D01*
X85915431Y-116789000D01*
X86804569Y-116789000D01*
X87626026Y-116448741D01*
X88254741Y-115820026D01*
X88595000Y-114998569D01*
X88595000Y-114109431D01*
X88254741Y-113287974D01*
X87626026Y-112659259D01*
X86804569Y-112319000D01*
X85915431Y-112319000D01*
X85093974Y-112659259D01*
X84465259Y-113287974D01*
X84125000Y-114109431D01*
X83768000Y-114109431D01*
X83768000Y-100717824D01*
X84465000Y-100717824D01*
X84465000Y-102482176D01*
X85140188Y-104112226D01*
X86387774Y-105359812D01*
X88017824Y-106035000D01*
X89782176Y-106035000D01*
X91412226Y-105359812D01*
X92659812Y-104112226D01*
X93335000Y-102482176D01*
X93335000Y-100717824D01*
X92659812Y-99087774D01*
X91412226Y-97840188D01*
X89782176Y-97165000D01*
X88017824Y-97165000D01*
X86387774Y-97840188D01*
X85140188Y-99087774D01*
X84465000Y-100717824D01*
X83768000Y-100717824D01*
X83768000Y-96133302D01*
X103821856Y-96133302D01*
X103849638Y-96688368D01*
X104008603Y-97072143D01*
X104250787Y-97141608D01*
X105051395Y-96341000D01*
X105410605Y-96341000D01*
X106211213Y-97141608D01*
X106453397Y-97072143D01*
X106640144Y-96548698D01*
X106612362Y-95993632D01*
X106453397Y-95609857D01*
X106211213Y-95540392D01*
X105410605Y-96341000D01*
X105051395Y-96341000D01*
X104250787Y-95540392D01*
X104008603Y-95609857D01*
X103821856Y-96133302D01*
X83768000Y-96133302D01*
X83768000Y-94781213D01*
X104430392Y-94781213D01*
X104499857Y-95023397D01*
X104623344Y-95067453D01*
X104499857Y-95118603D01*
X104430392Y-95360787D01*
X105231000Y-96161395D01*
X106031608Y-95360787D01*
X105962143Y-95118603D01*
X105838656Y-95074547D01*
X105962143Y-95023397D01*
X106031608Y-94781213D01*
X105231000Y-93980605D01*
X104430392Y-94781213D01*
X83768000Y-94781213D01*
X83768000Y-93593302D01*
X103821856Y-93593302D01*
X103849638Y-94148368D01*
X104008603Y-94532143D01*
X104250787Y-94601608D01*
X105051395Y-93801000D01*
X105410605Y-93801000D01*
X106211213Y-94601608D01*
X106453397Y-94532143D01*
X106640144Y-94008698D01*
X106612362Y-93453632D01*
X106453397Y-93069857D01*
X106211213Y-93000392D01*
X105410605Y-93801000D01*
X105051395Y-93801000D01*
X104250787Y-93000392D01*
X104008603Y-93069857D01*
X103821856Y-93593302D01*
X83768000Y-93593302D01*
X83768000Y-87693431D01*
X84125000Y-87693431D01*
X84125000Y-88582569D01*
X84465259Y-89404026D01*
X85093974Y-90032741D01*
X85915431Y-90373000D01*
X86804569Y-90373000D01*
X87626026Y-90032741D01*
X88254741Y-89404026D01*
X88595000Y-88582569D01*
X88595000Y-87959000D01*
X103821560Y-87959000D01*
X103821560Y-89483000D01*
X103870843Y-89730765D01*
X104011191Y-89940809D01*
X104221235Y-90081157D01*
X104399690Y-90116653D01*
X104046680Y-90469663D01*
X103834000Y-90983119D01*
X103834000Y-91538881D01*
X104046680Y-92052337D01*
X104439663Y-92445320D01*
X104630647Y-92524428D01*
X104499857Y-92578603D01*
X104430392Y-92820787D01*
X105231000Y-93621395D01*
X106031608Y-92820787D01*
X105962143Y-92578603D01*
X105821607Y-92528465D01*
X106022337Y-92445320D01*
X106415320Y-92052337D01*
X106628000Y-91538881D01*
X106628000Y-90983119D01*
X106415320Y-90469663D01*
X106062310Y-90116653D01*
X106240765Y-90081157D01*
X106450809Y-89940809D01*
X106591157Y-89730765D01*
X106640440Y-89483000D01*
X106640440Y-87959000D01*
X106591157Y-87711235D01*
X106450809Y-87501191D01*
X106240765Y-87360843D01*
X105993000Y-87311560D01*
X104469000Y-87311560D01*
X104221235Y-87360843D01*
X104011191Y-87501191D01*
X103870843Y-87711235D01*
X103821560Y-87959000D01*
X88595000Y-87959000D01*
X88595000Y-87693431D01*
X88254741Y-86871974D01*
X87626026Y-86243259D01*
X86804569Y-85903000D01*
X85915431Y-85903000D01*
X85093974Y-86243259D01*
X84465259Y-86871974D01*
X84125000Y-87693431D01*
X83768000Y-87693431D01*
X83768000Y-85546000D01*
X121210001Y-85546000D01*
X121210001Y-87515002D01*
G04 #@! TD*
M02*
