M48
;DRILL file {KiCad 5.0.1-33cea8e~66~ubuntu18.04.1} date 2018年10月18日 18時40分38秒
;FORMAT={-:-/ absolute / inch / decimal}
FMAT,2
INCH,TZ
T1C0.0300
T2C0.0472
T3C0.1260
T4C0.1693
%
G90
G05
M72
T1
X4.41Y-4.18
X4.41Y-4.48
X4.41Y-4.58
X4.61Y-4.18
X4.61Y-4.48
X4.61Y-4.58
X4.143Y-3.493
X4.143Y-3.593
X4.143Y-3.693
X4.143Y-3.793
X4.143Y-3.893
X4.143Y-3.993
X4.143Y-4.093
X4.143Y-4.193
X4.143Y-4.293
X4.143Y-4.393
X4.143Y-4.493
X4.143Y-4.593
X4.743Y-3.493
X4.743Y-3.593
X4.743Y-3.693
X4.743Y-3.793
X4.743Y-3.893
X4.743Y-3.993
X4.743Y-4.093
X4.743Y-4.193
X4.743Y-4.293
X4.743Y-4.393
X4.743Y-4.493
X4.743Y-4.593
T2
X4.3358Y-3.5106
X4.3614Y-3.8059
X4.5386Y-3.8059
X4.5642Y-3.5106
T3
X3.85Y-4.
T4
X3.5Y-4.
T0
M30
