G04 #@! TF.GenerationSoftware,KiCad,Pcbnew,5.0.1-33cea8e~66~ubuntu18.04.1*
G04 #@! TF.CreationDate,2018-10-18T18:40:30+09:00*
G04 #@! TF.ProjectId,touch_relay_jack,746F7563685F72656C61795F6A61636B,rev?*
G04 #@! TF.SameCoordinates,Original*
G04 #@! TF.FileFunction,Copper,L1,Top,Signal*
G04 #@! TF.FilePolarity,Positive*
%FSLAX46Y46*%
G04 Gerber Fmt 4.6, Leading zero omitted, Abs format (unit mm)*
G04 Created by KiCad (PCBNEW 5.0.1-33cea8e~66~ubuntu18.04.1) date 2018年10月18日 18時40分30秒*
%MOMM*%
%LPD*%
G01*
G04 APERTURE LIST*
G04 #@! TA.AperFunction,ComponentPad*
%ADD10R,1.524000X1.524000*%
G04 #@! TD*
G04 #@! TA.AperFunction,ComponentPad*
%ADD11C,1.524000*%
G04 #@! TD*
G04 #@! TA.AperFunction,SMDPad,CuDef*
%ADD12R,0.600000X0.700000*%
G04 #@! TD*
G04 #@! TA.AperFunction,Conductor*
%ADD13C,0.100000*%
G04 #@! TD*
G04 #@! TA.AperFunction,SMDPad,CuDef*
%ADD14C,0.875000*%
G04 #@! TD*
G04 #@! TA.AperFunction,ComponentPad*
%ADD15C,7.600000*%
G04 #@! TD*
G04 #@! TA.AperFunction,ComponentPad*
%ADD16C,1.900000*%
G04 #@! TD*
G04 #@! TA.AperFunction,ComponentPad*
%ADD17R,1.900000X1.900000*%
G04 #@! TD*
G04 #@! TA.AperFunction,SMDPad,CuDef*
%ADD18R,0.800000X0.900000*%
G04 #@! TD*
G04 #@! TA.AperFunction,ComponentPad*
%ADD19C,6.400000*%
G04 #@! TD*
G04 #@! TA.AperFunction,Conductor*
%ADD20C,0.250000*%
G04 #@! TD*
G04 #@! TA.AperFunction,Conductor*
%ADD21C,0.254000*%
G04 #@! TD*
G04 APERTURE END LIST*
D10*
G04 #@! TO.P,A1,1*
G04 #@! TO.N,Net-(A1-Pad1)*
X105231000Y-88721000D03*
D11*
G04 #@! TO.P,A1,2*
G04 #@! TO.N,Net-(A1-Pad2)*
X105231000Y-91261000D03*
G04 #@! TO.P,A1,3*
G04 #@! TO.N,GND*
X105231000Y-93801000D03*
G04 #@! TO.P,A1,4*
X105231000Y-96341000D03*
G04 #@! TO.P,A1,5*
G04 #@! TO.N,Net-(A1-Pad5)*
X105231000Y-98881000D03*
G04 #@! TO.P,A1,6*
G04 #@! TO.N,Net-(A1-Pad6)*
X105231000Y-101421000D03*
G04 #@! TO.P,A1,7*
G04 #@! TO.N,Relay*
X105231000Y-103961000D03*
G04 #@! TO.P,A1,8*
G04 #@! TO.N,Net-(A1-Pad8)*
X105231000Y-106501000D03*
G04 #@! TO.P,A1,9*
G04 #@! TO.N,Net-(A1-Pad9)*
X105231000Y-109041000D03*
G04 #@! TO.P,A1,10*
G04 #@! TO.N,Net-(A1-Pad10)*
X105231000Y-111581000D03*
G04 #@! TO.P,A1,11*
G04 #@! TO.N,Net-(A1-Pad11)*
X105231000Y-114121000D03*
G04 #@! TO.P,A1,12*
G04 #@! TO.N,Net-(A1-Pad12)*
X105231000Y-116661000D03*
G04 #@! TO.P,A1,13*
G04 #@! TO.N,Net-(A1-Pad13)*
X120471000Y-116661000D03*
G04 #@! TO.P,A1,14*
G04 #@! TO.N,Net-(A1-Pad14)*
X120471000Y-114121000D03*
G04 #@! TO.P,A1,15*
G04 #@! TO.N,Net-(A1-Pad15)*
X120471000Y-111581000D03*
G04 #@! TO.P,A1,16*
G04 #@! TO.N,Net-(A1-Pad16)*
X120471000Y-109041000D03*
G04 #@! TO.P,A1,17*
G04 #@! TO.N,Net-(A1-Pad17)*
X120471000Y-106501000D03*
G04 #@! TO.P,A1,18*
G04 #@! TO.N,Net-(A1-Pad18)*
X120471000Y-103961000D03*
G04 #@! TO.P,A1,19*
G04 #@! TO.N,Net-(A1-Pad19)*
X120471000Y-101421000D03*
G04 #@! TO.P,A1,20*
G04 #@! TO.N,Net-(A1-Pad20)*
X120471000Y-98881000D03*
G04 #@! TO.P,A1,21*
G04 #@! TO.N,+5V*
X120471000Y-96341000D03*
G04 #@! TO.P,A1,22*
G04 #@! TO.N,Net-(A1-Pad22)*
X120471000Y-93801000D03*
G04 #@! TO.P,A1,23*
G04 #@! TO.N,GND*
X120471000Y-91261000D03*
G04 #@! TO.P,A1,24*
G04 #@! TO.N,Net-(A1-Pad24)*
X120471000Y-88721000D03*
G04 #@! TD*
D12*
G04 #@! TO.P,D1,2*
G04 #@! TO.N,Net-(D1-Pad2)*
X109220000Y-111252000D03*
G04 #@! TO.P,D1,1*
G04 #@! TO.N,+5V*
X107820000Y-111252000D03*
G04 #@! TD*
D13*
G04 #@! TO.N,Net-(D2-Pad1)*
G04 #@! TO.C,D2*
G36*
X101369691Y-116403053D02*
X101390926Y-116406203D01*
X101411750Y-116411419D01*
X101431962Y-116418651D01*
X101451368Y-116427830D01*
X101469781Y-116438866D01*
X101487024Y-116451654D01*
X101502930Y-116466070D01*
X101517346Y-116481976D01*
X101530134Y-116499219D01*
X101541170Y-116517632D01*
X101550349Y-116537038D01*
X101557581Y-116557250D01*
X101562797Y-116578074D01*
X101565947Y-116599309D01*
X101567000Y-116620750D01*
X101567000Y-117058250D01*
X101565947Y-117079691D01*
X101562797Y-117100926D01*
X101557581Y-117121750D01*
X101550349Y-117141962D01*
X101541170Y-117161368D01*
X101530134Y-117179781D01*
X101517346Y-117197024D01*
X101502930Y-117212930D01*
X101487024Y-117227346D01*
X101469781Y-117240134D01*
X101451368Y-117251170D01*
X101431962Y-117260349D01*
X101411750Y-117267581D01*
X101390926Y-117272797D01*
X101369691Y-117275947D01*
X101348250Y-117277000D01*
X100835750Y-117277000D01*
X100814309Y-117275947D01*
X100793074Y-117272797D01*
X100772250Y-117267581D01*
X100752038Y-117260349D01*
X100732632Y-117251170D01*
X100714219Y-117240134D01*
X100696976Y-117227346D01*
X100681070Y-117212930D01*
X100666654Y-117197024D01*
X100653866Y-117179781D01*
X100642830Y-117161368D01*
X100633651Y-117141962D01*
X100626419Y-117121750D01*
X100621203Y-117100926D01*
X100618053Y-117079691D01*
X100617000Y-117058250D01*
X100617000Y-116620750D01*
X100618053Y-116599309D01*
X100621203Y-116578074D01*
X100626419Y-116557250D01*
X100633651Y-116537038D01*
X100642830Y-116517632D01*
X100653866Y-116499219D01*
X100666654Y-116481976D01*
X100681070Y-116466070D01*
X100696976Y-116451654D01*
X100714219Y-116438866D01*
X100732632Y-116427830D01*
X100752038Y-116418651D01*
X100772250Y-116411419D01*
X100793074Y-116406203D01*
X100814309Y-116403053D01*
X100835750Y-116402000D01*
X101348250Y-116402000D01*
X101369691Y-116403053D01*
X101369691Y-116403053D01*
G37*
D14*
G04 #@! TD*
G04 #@! TO.P,D2,1*
G04 #@! TO.N,Net-(D2-Pad1)*
X101092000Y-116839500D03*
D13*
G04 #@! TO.N,+5V*
G04 #@! TO.C,D2*
G36*
X101369691Y-114828053D02*
X101390926Y-114831203D01*
X101411750Y-114836419D01*
X101431962Y-114843651D01*
X101451368Y-114852830D01*
X101469781Y-114863866D01*
X101487024Y-114876654D01*
X101502930Y-114891070D01*
X101517346Y-114906976D01*
X101530134Y-114924219D01*
X101541170Y-114942632D01*
X101550349Y-114962038D01*
X101557581Y-114982250D01*
X101562797Y-115003074D01*
X101565947Y-115024309D01*
X101567000Y-115045750D01*
X101567000Y-115483250D01*
X101565947Y-115504691D01*
X101562797Y-115525926D01*
X101557581Y-115546750D01*
X101550349Y-115566962D01*
X101541170Y-115586368D01*
X101530134Y-115604781D01*
X101517346Y-115622024D01*
X101502930Y-115637930D01*
X101487024Y-115652346D01*
X101469781Y-115665134D01*
X101451368Y-115676170D01*
X101431962Y-115685349D01*
X101411750Y-115692581D01*
X101390926Y-115697797D01*
X101369691Y-115700947D01*
X101348250Y-115702000D01*
X100835750Y-115702000D01*
X100814309Y-115700947D01*
X100793074Y-115697797D01*
X100772250Y-115692581D01*
X100752038Y-115685349D01*
X100732632Y-115676170D01*
X100714219Y-115665134D01*
X100696976Y-115652346D01*
X100681070Y-115637930D01*
X100666654Y-115622024D01*
X100653866Y-115604781D01*
X100642830Y-115586368D01*
X100633651Y-115566962D01*
X100626419Y-115546750D01*
X100621203Y-115525926D01*
X100618053Y-115504691D01*
X100617000Y-115483250D01*
X100617000Y-115045750D01*
X100618053Y-115024309D01*
X100621203Y-115003074D01*
X100626419Y-114982250D01*
X100633651Y-114962038D01*
X100642830Y-114942632D01*
X100653866Y-114924219D01*
X100666654Y-114906976D01*
X100681070Y-114891070D01*
X100696976Y-114876654D01*
X100714219Y-114863866D01*
X100732632Y-114852830D01*
X100752038Y-114843651D01*
X100772250Y-114836419D01*
X100793074Y-114831203D01*
X100814309Y-114828053D01*
X100835750Y-114827000D01*
X101348250Y-114827000D01*
X101369691Y-114828053D01*
X101369691Y-114828053D01*
G37*
D14*
G04 #@! TD*
G04 #@! TO.P,D2,2*
G04 #@! TO.N,+5V*
X101092000Y-115264500D03*
D15*
G04 #@! TO.P,H1,1*
G04 #@! TO.N,Net-(A1-Pad11)*
X88900000Y-101600000D03*
G04 #@! TD*
D16*
G04 #@! TO.P,J1,T*
G04 #@! TO.N,Net-(J1-PadT)*
X115930000Y-89170000D03*
X110130000Y-89170000D03*
D17*
G04 #@! TO.P,J1,R*
G04 #@! TO.N,Net-(J1-PadR)*
X115280000Y-96670000D03*
D16*
G04 #@! TO.P,J1,S*
X110780000Y-96670000D03*
G04 #@! TD*
D10*
G04 #@! TO.P,K1,1*
G04 #@! TO.N,Net-(J1-PadT)*
X112014000Y-116332000D03*
D11*
G04 #@! TO.P,K1,2*
G04 #@! TO.N,Net-(K1-Pad2)*
X117094000Y-116332000D03*
G04 #@! TO.P,K1,3*
G04 #@! TO.N,Net-(D1-Pad2)*
X112014000Y-113792000D03*
G04 #@! TO.P,K1,4*
G04 #@! TO.N,+5V*
X117094000Y-113792000D03*
G04 #@! TO.P,K1,5*
G04 #@! TO.N,Net-(J1-PadR)*
X112014000Y-106172000D03*
G04 #@! TO.P,K1,6*
X117094000Y-106172000D03*
G04 #@! TD*
D18*
G04 #@! TO.P,Q1,1*
G04 #@! TO.N,Relay*
X109662000Y-107458000D03*
G04 #@! TO.P,Q1,2*
G04 #@! TO.N,GND*
X107762000Y-107458000D03*
G04 #@! TO.P,Q1,3*
G04 #@! TO.N,Net-(D1-Pad2)*
X108712000Y-109458000D03*
G04 #@! TD*
D13*
G04 #@! TO.N,Net-(D1-Pad2)*
G04 #@! TO.C,R1*
G36*
X103147691Y-114880053D02*
X103168926Y-114883203D01*
X103189750Y-114888419D01*
X103209962Y-114895651D01*
X103229368Y-114904830D01*
X103247781Y-114915866D01*
X103265024Y-114928654D01*
X103280930Y-114943070D01*
X103295346Y-114958976D01*
X103308134Y-114976219D01*
X103319170Y-114994632D01*
X103328349Y-115014038D01*
X103335581Y-115034250D01*
X103340797Y-115055074D01*
X103343947Y-115076309D01*
X103345000Y-115097750D01*
X103345000Y-115535250D01*
X103343947Y-115556691D01*
X103340797Y-115577926D01*
X103335581Y-115598750D01*
X103328349Y-115618962D01*
X103319170Y-115638368D01*
X103308134Y-115656781D01*
X103295346Y-115674024D01*
X103280930Y-115689930D01*
X103265024Y-115704346D01*
X103247781Y-115717134D01*
X103229368Y-115728170D01*
X103209962Y-115737349D01*
X103189750Y-115744581D01*
X103168926Y-115749797D01*
X103147691Y-115752947D01*
X103126250Y-115754000D01*
X102613750Y-115754000D01*
X102592309Y-115752947D01*
X102571074Y-115749797D01*
X102550250Y-115744581D01*
X102530038Y-115737349D01*
X102510632Y-115728170D01*
X102492219Y-115717134D01*
X102474976Y-115704346D01*
X102459070Y-115689930D01*
X102444654Y-115674024D01*
X102431866Y-115656781D01*
X102420830Y-115638368D01*
X102411651Y-115618962D01*
X102404419Y-115598750D01*
X102399203Y-115577926D01*
X102396053Y-115556691D01*
X102395000Y-115535250D01*
X102395000Y-115097750D01*
X102396053Y-115076309D01*
X102399203Y-115055074D01*
X102404419Y-115034250D01*
X102411651Y-115014038D01*
X102420830Y-114994632D01*
X102431866Y-114976219D01*
X102444654Y-114958976D01*
X102459070Y-114943070D01*
X102474976Y-114928654D01*
X102492219Y-114915866D01*
X102510632Y-114904830D01*
X102530038Y-114895651D01*
X102550250Y-114888419D01*
X102571074Y-114883203D01*
X102592309Y-114880053D01*
X102613750Y-114879000D01*
X103126250Y-114879000D01*
X103147691Y-114880053D01*
X103147691Y-114880053D01*
G37*
D14*
G04 #@! TD*
G04 #@! TO.P,R1,1*
G04 #@! TO.N,Net-(D1-Pad2)*
X102870000Y-115316500D03*
D13*
G04 #@! TO.N,Net-(D2-Pad1)*
G04 #@! TO.C,R1*
G36*
X103147691Y-116455053D02*
X103168926Y-116458203D01*
X103189750Y-116463419D01*
X103209962Y-116470651D01*
X103229368Y-116479830D01*
X103247781Y-116490866D01*
X103265024Y-116503654D01*
X103280930Y-116518070D01*
X103295346Y-116533976D01*
X103308134Y-116551219D01*
X103319170Y-116569632D01*
X103328349Y-116589038D01*
X103335581Y-116609250D01*
X103340797Y-116630074D01*
X103343947Y-116651309D01*
X103345000Y-116672750D01*
X103345000Y-117110250D01*
X103343947Y-117131691D01*
X103340797Y-117152926D01*
X103335581Y-117173750D01*
X103328349Y-117193962D01*
X103319170Y-117213368D01*
X103308134Y-117231781D01*
X103295346Y-117249024D01*
X103280930Y-117264930D01*
X103265024Y-117279346D01*
X103247781Y-117292134D01*
X103229368Y-117303170D01*
X103209962Y-117312349D01*
X103189750Y-117319581D01*
X103168926Y-117324797D01*
X103147691Y-117327947D01*
X103126250Y-117329000D01*
X102613750Y-117329000D01*
X102592309Y-117327947D01*
X102571074Y-117324797D01*
X102550250Y-117319581D01*
X102530038Y-117312349D01*
X102510632Y-117303170D01*
X102492219Y-117292134D01*
X102474976Y-117279346D01*
X102459070Y-117264930D01*
X102444654Y-117249024D01*
X102431866Y-117231781D01*
X102420830Y-117213368D01*
X102411651Y-117193962D01*
X102404419Y-117173750D01*
X102399203Y-117152926D01*
X102396053Y-117131691D01*
X102395000Y-117110250D01*
X102395000Y-116672750D01*
X102396053Y-116651309D01*
X102399203Y-116630074D01*
X102404419Y-116609250D01*
X102411651Y-116589038D01*
X102420830Y-116569632D01*
X102431866Y-116551219D01*
X102444654Y-116533976D01*
X102459070Y-116518070D01*
X102474976Y-116503654D01*
X102492219Y-116490866D01*
X102510632Y-116479830D01*
X102530038Y-116470651D01*
X102550250Y-116463419D01*
X102571074Y-116458203D01*
X102592309Y-116455053D01*
X102613750Y-116454000D01*
X103126250Y-116454000D01*
X103147691Y-116455053D01*
X103147691Y-116455053D01*
G37*
D14*
G04 #@! TD*
G04 #@! TO.P,R1,2*
G04 #@! TO.N,Net-(D2-Pad1)*
X102870000Y-116891500D03*
D13*
G04 #@! TO.N,Relay*
G04 #@! TO.C,R2*
G36*
X109713691Y-105190053D02*
X109734926Y-105193203D01*
X109755750Y-105198419D01*
X109775962Y-105205651D01*
X109795368Y-105214830D01*
X109813781Y-105225866D01*
X109831024Y-105238654D01*
X109846930Y-105253070D01*
X109861346Y-105268976D01*
X109874134Y-105286219D01*
X109885170Y-105304632D01*
X109894349Y-105324038D01*
X109901581Y-105344250D01*
X109906797Y-105365074D01*
X109909947Y-105386309D01*
X109911000Y-105407750D01*
X109911000Y-105920250D01*
X109909947Y-105941691D01*
X109906797Y-105962926D01*
X109901581Y-105983750D01*
X109894349Y-106003962D01*
X109885170Y-106023368D01*
X109874134Y-106041781D01*
X109861346Y-106059024D01*
X109846930Y-106074930D01*
X109831024Y-106089346D01*
X109813781Y-106102134D01*
X109795368Y-106113170D01*
X109775962Y-106122349D01*
X109755750Y-106129581D01*
X109734926Y-106134797D01*
X109713691Y-106137947D01*
X109692250Y-106139000D01*
X109254750Y-106139000D01*
X109233309Y-106137947D01*
X109212074Y-106134797D01*
X109191250Y-106129581D01*
X109171038Y-106122349D01*
X109151632Y-106113170D01*
X109133219Y-106102134D01*
X109115976Y-106089346D01*
X109100070Y-106074930D01*
X109085654Y-106059024D01*
X109072866Y-106041781D01*
X109061830Y-106023368D01*
X109052651Y-106003962D01*
X109045419Y-105983750D01*
X109040203Y-105962926D01*
X109037053Y-105941691D01*
X109036000Y-105920250D01*
X109036000Y-105407750D01*
X109037053Y-105386309D01*
X109040203Y-105365074D01*
X109045419Y-105344250D01*
X109052651Y-105324038D01*
X109061830Y-105304632D01*
X109072866Y-105286219D01*
X109085654Y-105268976D01*
X109100070Y-105253070D01*
X109115976Y-105238654D01*
X109133219Y-105225866D01*
X109151632Y-105214830D01*
X109171038Y-105205651D01*
X109191250Y-105198419D01*
X109212074Y-105193203D01*
X109233309Y-105190053D01*
X109254750Y-105189000D01*
X109692250Y-105189000D01*
X109713691Y-105190053D01*
X109713691Y-105190053D01*
G37*
D14*
G04 #@! TD*
G04 #@! TO.P,R2,2*
G04 #@! TO.N,Relay*
X109473500Y-105664000D03*
D13*
G04 #@! TO.N,GND*
G04 #@! TO.C,R2*
G36*
X108138691Y-105190053D02*
X108159926Y-105193203D01*
X108180750Y-105198419D01*
X108200962Y-105205651D01*
X108220368Y-105214830D01*
X108238781Y-105225866D01*
X108256024Y-105238654D01*
X108271930Y-105253070D01*
X108286346Y-105268976D01*
X108299134Y-105286219D01*
X108310170Y-105304632D01*
X108319349Y-105324038D01*
X108326581Y-105344250D01*
X108331797Y-105365074D01*
X108334947Y-105386309D01*
X108336000Y-105407750D01*
X108336000Y-105920250D01*
X108334947Y-105941691D01*
X108331797Y-105962926D01*
X108326581Y-105983750D01*
X108319349Y-106003962D01*
X108310170Y-106023368D01*
X108299134Y-106041781D01*
X108286346Y-106059024D01*
X108271930Y-106074930D01*
X108256024Y-106089346D01*
X108238781Y-106102134D01*
X108220368Y-106113170D01*
X108200962Y-106122349D01*
X108180750Y-106129581D01*
X108159926Y-106134797D01*
X108138691Y-106137947D01*
X108117250Y-106139000D01*
X107679750Y-106139000D01*
X107658309Y-106137947D01*
X107637074Y-106134797D01*
X107616250Y-106129581D01*
X107596038Y-106122349D01*
X107576632Y-106113170D01*
X107558219Y-106102134D01*
X107540976Y-106089346D01*
X107525070Y-106074930D01*
X107510654Y-106059024D01*
X107497866Y-106041781D01*
X107486830Y-106023368D01*
X107477651Y-106003962D01*
X107470419Y-105983750D01*
X107465203Y-105962926D01*
X107462053Y-105941691D01*
X107461000Y-105920250D01*
X107461000Y-105407750D01*
X107462053Y-105386309D01*
X107465203Y-105365074D01*
X107470419Y-105344250D01*
X107477651Y-105324038D01*
X107486830Y-105304632D01*
X107497866Y-105286219D01*
X107510654Y-105268976D01*
X107525070Y-105253070D01*
X107540976Y-105238654D01*
X107558219Y-105225866D01*
X107576632Y-105214830D01*
X107596038Y-105205651D01*
X107616250Y-105198419D01*
X107637074Y-105193203D01*
X107658309Y-105190053D01*
X107679750Y-105189000D01*
X108117250Y-105189000D01*
X108138691Y-105190053D01*
X108138691Y-105190053D01*
G37*
D14*
G04 #@! TD*
G04 #@! TO.P,R2,1*
G04 #@! TO.N,GND*
X107898500Y-105664000D03*
D13*
G04 #@! TO.N,Net-(A1-Pad11)*
G04 #@! TO.C,R3*
G36*
X109459691Y-115096053D02*
X109480926Y-115099203D01*
X109501750Y-115104419D01*
X109521962Y-115111651D01*
X109541368Y-115120830D01*
X109559781Y-115131866D01*
X109577024Y-115144654D01*
X109592930Y-115159070D01*
X109607346Y-115174976D01*
X109620134Y-115192219D01*
X109631170Y-115210632D01*
X109640349Y-115230038D01*
X109647581Y-115250250D01*
X109652797Y-115271074D01*
X109655947Y-115292309D01*
X109657000Y-115313750D01*
X109657000Y-115826250D01*
X109655947Y-115847691D01*
X109652797Y-115868926D01*
X109647581Y-115889750D01*
X109640349Y-115909962D01*
X109631170Y-115929368D01*
X109620134Y-115947781D01*
X109607346Y-115965024D01*
X109592930Y-115980930D01*
X109577024Y-115995346D01*
X109559781Y-116008134D01*
X109541368Y-116019170D01*
X109521962Y-116028349D01*
X109501750Y-116035581D01*
X109480926Y-116040797D01*
X109459691Y-116043947D01*
X109438250Y-116045000D01*
X109000750Y-116045000D01*
X108979309Y-116043947D01*
X108958074Y-116040797D01*
X108937250Y-116035581D01*
X108917038Y-116028349D01*
X108897632Y-116019170D01*
X108879219Y-116008134D01*
X108861976Y-115995346D01*
X108846070Y-115980930D01*
X108831654Y-115965024D01*
X108818866Y-115947781D01*
X108807830Y-115929368D01*
X108798651Y-115909962D01*
X108791419Y-115889750D01*
X108786203Y-115868926D01*
X108783053Y-115847691D01*
X108782000Y-115826250D01*
X108782000Y-115313750D01*
X108783053Y-115292309D01*
X108786203Y-115271074D01*
X108791419Y-115250250D01*
X108798651Y-115230038D01*
X108807830Y-115210632D01*
X108818866Y-115192219D01*
X108831654Y-115174976D01*
X108846070Y-115159070D01*
X108861976Y-115144654D01*
X108879219Y-115131866D01*
X108897632Y-115120830D01*
X108917038Y-115111651D01*
X108937250Y-115104419D01*
X108958074Y-115099203D01*
X108979309Y-115096053D01*
X109000750Y-115095000D01*
X109438250Y-115095000D01*
X109459691Y-115096053D01*
X109459691Y-115096053D01*
G37*
D14*
G04 #@! TD*
G04 #@! TO.P,R3,1*
G04 #@! TO.N,Net-(A1-Pad11)*
X109219500Y-115570000D03*
D13*
G04 #@! TO.N,Net-(A1-Pad12)*
G04 #@! TO.C,R3*
G36*
X107884691Y-115096053D02*
X107905926Y-115099203D01*
X107926750Y-115104419D01*
X107946962Y-115111651D01*
X107966368Y-115120830D01*
X107984781Y-115131866D01*
X108002024Y-115144654D01*
X108017930Y-115159070D01*
X108032346Y-115174976D01*
X108045134Y-115192219D01*
X108056170Y-115210632D01*
X108065349Y-115230038D01*
X108072581Y-115250250D01*
X108077797Y-115271074D01*
X108080947Y-115292309D01*
X108082000Y-115313750D01*
X108082000Y-115826250D01*
X108080947Y-115847691D01*
X108077797Y-115868926D01*
X108072581Y-115889750D01*
X108065349Y-115909962D01*
X108056170Y-115929368D01*
X108045134Y-115947781D01*
X108032346Y-115965024D01*
X108017930Y-115980930D01*
X108002024Y-115995346D01*
X107984781Y-116008134D01*
X107966368Y-116019170D01*
X107946962Y-116028349D01*
X107926750Y-116035581D01*
X107905926Y-116040797D01*
X107884691Y-116043947D01*
X107863250Y-116045000D01*
X107425750Y-116045000D01*
X107404309Y-116043947D01*
X107383074Y-116040797D01*
X107362250Y-116035581D01*
X107342038Y-116028349D01*
X107322632Y-116019170D01*
X107304219Y-116008134D01*
X107286976Y-115995346D01*
X107271070Y-115980930D01*
X107256654Y-115965024D01*
X107243866Y-115947781D01*
X107232830Y-115929368D01*
X107223651Y-115909962D01*
X107216419Y-115889750D01*
X107211203Y-115868926D01*
X107208053Y-115847691D01*
X107207000Y-115826250D01*
X107207000Y-115313750D01*
X107208053Y-115292309D01*
X107211203Y-115271074D01*
X107216419Y-115250250D01*
X107223651Y-115230038D01*
X107232830Y-115210632D01*
X107243866Y-115192219D01*
X107256654Y-115174976D01*
X107271070Y-115159070D01*
X107286976Y-115144654D01*
X107304219Y-115131866D01*
X107322632Y-115120830D01*
X107342038Y-115111651D01*
X107362250Y-115104419D01*
X107383074Y-115099203D01*
X107404309Y-115096053D01*
X107425750Y-115095000D01*
X107863250Y-115095000D01*
X107884691Y-115096053D01*
X107884691Y-115096053D01*
G37*
D14*
G04 #@! TD*
G04 #@! TO.P,R3,2*
G04 #@! TO.N,Net-(A1-Pad12)*
X107644500Y-115570000D03*
D19*
G04 #@! TO.P,H2,1*
G04 #@! TO.N,Net-(A1-Pad11)*
X97790000Y-101600000D03*
G04 #@! TD*
D20*
G04 #@! TO.N,GND*
X107762000Y-105800500D02*
X107898500Y-105664000D01*
X107762000Y-107458000D02*
X107762000Y-105800500D01*
X107762000Y-105800500D02*
X107375100Y-105413600D01*
X107375100Y-105413600D02*
X105139600Y-105413600D01*
X105139600Y-105413600D02*
X104118700Y-104392700D01*
X104118700Y-104392700D02*
X104118700Y-97453300D01*
X104118700Y-97453300D02*
X105231000Y-96341000D01*
X120471000Y-91261000D02*
X107771000Y-91261000D01*
X107771000Y-91261000D02*
X105231000Y-93801000D01*
G04 #@! TO.N,Relay*
X109473500Y-105664000D02*
X107770500Y-103961000D01*
X107770500Y-103961000D02*
X105231000Y-103961000D01*
X109473500Y-105664000D02*
X109473500Y-107458000D01*
X109662000Y-107458000D02*
X109473500Y-107458000D01*
G04 #@! TO.N,Net-(A1-Pad11)*
X109219500Y-115570000D02*
X107770500Y-114121000D01*
X107770500Y-114121000D02*
X105231000Y-114121000D01*
X97790000Y-101600000D02*
X88900000Y-101600000D01*
G04 #@! TO.N,Net-(A1-Pad12)*
X107644500Y-115570000D02*
X106322000Y-115570000D01*
X106322000Y-115570000D02*
X105231000Y-116661000D01*
G04 #@! TO.N,+5V*
X107820000Y-111252000D02*
X107194700Y-111252000D01*
X101092000Y-115264500D02*
X101931500Y-116104000D01*
X101931500Y-116104000D02*
X103385100Y-116104000D01*
X103385100Y-116104000D02*
X103860900Y-115628200D01*
X103860900Y-115628200D02*
X103860900Y-113942900D01*
X103860900Y-113942900D02*
X104952800Y-112851000D01*
X104952800Y-112851000D02*
X105595700Y-112851000D01*
X105595700Y-112851000D02*
X107194700Y-111252000D01*
X107820000Y-111252000D02*
X108445300Y-111252000D01*
X117094000Y-113792000D02*
X115998600Y-114887400D01*
X115998600Y-114887400D02*
X111533600Y-114887400D01*
X111533600Y-114887400D02*
X108445300Y-111799100D01*
X108445300Y-111799100D02*
X108445300Y-111252000D01*
X120471000Y-96341000D02*
X118618100Y-98193900D01*
X118618100Y-98193900D02*
X118618100Y-112267900D01*
X118618100Y-112267900D02*
X117094000Y-113792000D01*
G04 #@! TO.N,Net-(D1-Pad2)*
X109220000Y-111252000D02*
X109220000Y-110576700D01*
X108712000Y-109458000D02*
X108712000Y-110233300D01*
X108712000Y-110233300D02*
X109055400Y-110576700D01*
X109055400Y-110576700D02*
X109220000Y-110576700D01*
X108691200Y-109458000D02*
X108712000Y-109458000D01*
X108691200Y-109458000D02*
X107986700Y-109458000D01*
X102870000Y-115316500D02*
X102870000Y-112345700D01*
X102870000Y-112345700D02*
X105032400Y-110183300D01*
X105032400Y-110183300D02*
X107261400Y-110183300D01*
X107261400Y-110183300D02*
X107986700Y-109458000D01*
X109220000Y-111252000D02*
X109845300Y-111252000D01*
X112014000Y-113792000D02*
X109845300Y-111623300D01*
X109845300Y-111623300D02*
X109845300Y-111252000D01*
G04 #@! TO.N,Net-(J1-PadT)*
X110130000Y-89170000D02*
X115930000Y-89170000D01*
G04 #@! TO.N,Net-(J1-PadR)*
X117094000Y-106172000D02*
X112014000Y-106172000D01*
X110780000Y-96670000D02*
X115280000Y-96670000D01*
G04 #@! TO.N,Net-(D2-Pad1)*
X102870000Y-116891500D02*
X101144000Y-116891500D01*
X101144000Y-116891500D02*
X101092000Y-116839500D01*
G04 #@! TD*
D21*
G04 #@! TO.N,GND*
G36*
X121210001Y-87515002D02*
X120748881Y-87324000D01*
X120193119Y-87324000D01*
X119679663Y-87536680D01*
X119286680Y-87929663D01*
X119074000Y-88443119D01*
X119074000Y-88998881D01*
X119286680Y-89512337D01*
X119679663Y-89905320D01*
X119870647Y-89984428D01*
X119739857Y-90038603D01*
X119670392Y-90280787D01*
X120471000Y-91081395D01*
X120485143Y-91067253D01*
X120664748Y-91246858D01*
X120650605Y-91261000D01*
X120664748Y-91275143D01*
X120485143Y-91454748D01*
X120471000Y-91440605D01*
X119670392Y-92241213D01*
X119739857Y-92483397D01*
X119880393Y-92533535D01*
X119679663Y-92616680D01*
X119286680Y-93009663D01*
X119074000Y-93523119D01*
X119074000Y-94078881D01*
X119286680Y-94592337D01*
X119679663Y-94985320D01*
X119886513Y-95071000D01*
X119679663Y-95156680D01*
X119286680Y-95549663D01*
X119074000Y-96063119D01*
X119074000Y-96618881D01*
X119086980Y-96650218D01*
X118133630Y-97603569D01*
X118070171Y-97645971D01*
X117902196Y-97897364D01*
X117858100Y-98119049D01*
X117858100Y-98119053D01*
X117843212Y-98193900D01*
X117858100Y-98268747D01*
X117858100Y-104976398D01*
X117371881Y-104775000D01*
X116816119Y-104775000D01*
X116302663Y-104987680D01*
X115909680Y-105380663D01*
X115896700Y-105412000D01*
X113211300Y-105412000D01*
X113198320Y-105380663D01*
X112805337Y-104987680D01*
X112291881Y-104775000D01*
X111736119Y-104775000D01*
X111222663Y-104987680D01*
X110829680Y-105380663D01*
X110617000Y-105894119D01*
X110617000Y-106449881D01*
X110829680Y-106963337D01*
X111222663Y-107356320D01*
X111736119Y-107569000D01*
X112291881Y-107569000D01*
X112805337Y-107356320D01*
X113198320Y-106963337D01*
X113211300Y-106932000D01*
X115896700Y-106932000D01*
X115909680Y-106963337D01*
X116302663Y-107356320D01*
X116816119Y-107569000D01*
X117371881Y-107569000D01*
X117858101Y-107367602D01*
X117858101Y-111953097D01*
X117403218Y-112407980D01*
X117371881Y-112395000D01*
X116816119Y-112395000D01*
X116302663Y-112607680D01*
X115909680Y-113000663D01*
X115697000Y-113514119D01*
X115697000Y-114069881D01*
X115709980Y-114101218D01*
X115683799Y-114127400D01*
X113387175Y-114127400D01*
X113411000Y-114069881D01*
X113411000Y-113514119D01*
X113198320Y-113000663D01*
X112805337Y-112607680D01*
X112291881Y-112395000D01*
X111736119Y-112395000D01*
X111704782Y-112407980D01*
X110608345Y-111311544D01*
X110620189Y-111252000D01*
X110561204Y-110955463D01*
X110393229Y-110704071D01*
X110141837Y-110536096D01*
X110023489Y-110512555D01*
X109977809Y-110444191D01*
X109967109Y-110437042D01*
X109935904Y-110280163D01*
X109767929Y-110028771D01*
X109739232Y-110009596D01*
X109759440Y-109908000D01*
X109759440Y-109008000D01*
X109710157Y-108760235D01*
X109573316Y-108555440D01*
X110062000Y-108555440D01*
X110309765Y-108506157D01*
X110519809Y-108365809D01*
X110660157Y-108155765D01*
X110709440Y-107908000D01*
X110709440Y-107008000D01*
X110660157Y-106760235D01*
X110519809Y-106550191D01*
X110363061Y-106445454D01*
X110492505Y-106251727D01*
X110558440Y-105920250D01*
X110558440Y-105407750D01*
X110492505Y-105076273D01*
X110304739Y-104795261D01*
X110023727Y-104607495D01*
X109692250Y-104541560D01*
X109425862Y-104541560D01*
X108360831Y-103476530D01*
X108318429Y-103413071D01*
X108067037Y-103245096D01*
X107845352Y-103201000D01*
X107845347Y-103201000D01*
X107770500Y-103186112D01*
X107695653Y-103201000D01*
X106428300Y-103201000D01*
X106415320Y-103169663D01*
X106022337Y-102776680D01*
X105815487Y-102691000D01*
X106022337Y-102605320D01*
X106415320Y-102212337D01*
X106628000Y-101698881D01*
X106628000Y-101143119D01*
X106527890Y-100901431D01*
X113081000Y-100901431D01*
X113081000Y-101790569D01*
X113421259Y-102612026D01*
X114049974Y-103240741D01*
X114871431Y-103581000D01*
X115760569Y-103581000D01*
X116582026Y-103240741D01*
X117210741Y-102612026D01*
X117551000Y-101790569D01*
X117551000Y-100901431D01*
X117210741Y-100079974D01*
X116582026Y-99451259D01*
X115760569Y-99111000D01*
X114871431Y-99111000D01*
X114049974Y-99451259D01*
X113421259Y-100079974D01*
X113081000Y-100901431D01*
X106527890Y-100901431D01*
X106415320Y-100629663D01*
X106022337Y-100236680D01*
X105815487Y-100151000D01*
X106022337Y-100065320D01*
X106415320Y-99672337D01*
X106628000Y-99158881D01*
X106628000Y-98603119D01*
X106415320Y-98089663D01*
X106022337Y-97696680D01*
X105831353Y-97617572D01*
X105962143Y-97563397D01*
X106031608Y-97321213D01*
X105231000Y-96520605D01*
X104430392Y-97321213D01*
X104499857Y-97563397D01*
X104640393Y-97613535D01*
X104439663Y-97696680D01*
X104046680Y-98089663D01*
X103834000Y-98603119D01*
X103834000Y-99158881D01*
X104046680Y-99672337D01*
X104439663Y-100065320D01*
X104646513Y-100151000D01*
X104439663Y-100236680D01*
X104046680Y-100629663D01*
X103834000Y-101143119D01*
X103834000Y-101698881D01*
X104046680Y-102212337D01*
X104439663Y-102605320D01*
X104646513Y-102691000D01*
X104439663Y-102776680D01*
X104046680Y-103169663D01*
X103834000Y-103683119D01*
X103834000Y-104238881D01*
X104046680Y-104752337D01*
X104439663Y-105145320D01*
X104646513Y-105231000D01*
X104439663Y-105316680D01*
X104046680Y-105709663D01*
X103834000Y-106223119D01*
X103834000Y-106778881D01*
X104046680Y-107292337D01*
X104439663Y-107685320D01*
X104646513Y-107771000D01*
X104439663Y-107856680D01*
X104046680Y-108249663D01*
X103834000Y-108763119D01*
X103834000Y-109318881D01*
X104046680Y-109832337D01*
X104177620Y-109963277D01*
X102385528Y-111755371D01*
X102322072Y-111797771D01*
X102279672Y-111861227D01*
X102279671Y-111861228D01*
X102154097Y-112049163D01*
X102095112Y-112345700D01*
X102110001Y-112420552D01*
X102110000Y-114412604D01*
X102001261Y-114485261D01*
X101998373Y-114489584D01*
X101960739Y-114433261D01*
X101679727Y-114245495D01*
X101348250Y-114179560D01*
X100835750Y-114179560D01*
X100504273Y-114245495D01*
X100223261Y-114433261D01*
X100035495Y-114714273D01*
X99969560Y-115045750D01*
X99969560Y-115483250D01*
X100035495Y-115814727D01*
X100194036Y-116052000D01*
X100035495Y-116289273D01*
X99969560Y-116620750D01*
X99969560Y-117058250D01*
X100035495Y-117389727D01*
X100042359Y-117400000D01*
X83768000Y-117400000D01*
X83768000Y-114109431D01*
X84125000Y-114109431D01*
X84125000Y-114998569D01*
X84465259Y-115820026D01*
X85093974Y-116448741D01*
X85915431Y-116789000D01*
X86804569Y-116789000D01*
X87626026Y-116448741D01*
X88254741Y-115820026D01*
X88595000Y-114998569D01*
X88595000Y-114109431D01*
X88254741Y-113287974D01*
X87626026Y-112659259D01*
X86804569Y-112319000D01*
X85915431Y-112319000D01*
X85093974Y-112659259D01*
X84465259Y-113287974D01*
X84125000Y-114109431D01*
X83768000Y-114109431D01*
X83768000Y-100717824D01*
X84465000Y-100717824D01*
X84465000Y-102482176D01*
X85140188Y-104112226D01*
X86387774Y-105359812D01*
X88017824Y-106035000D01*
X89782176Y-106035000D01*
X91412226Y-105359812D01*
X92659812Y-104112226D01*
X93335000Y-102482176D01*
X93335000Y-102360000D01*
X93955000Y-102360000D01*
X93955000Y-102362829D01*
X94538844Y-103772353D01*
X95617647Y-104851156D01*
X97027171Y-105435000D01*
X98552829Y-105435000D01*
X99962353Y-104851156D01*
X101041156Y-103772353D01*
X101625000Y-102362829D01*
X101625000Y-100837171D01*
X101041156Y-99427647D01*
X99962353Y-98348844D01*
X98552829Y-97765000D01*
X97027171Y-97765000D01*
X95617647Y-98348844D01*
X94538844Y-99427647D01*
X93955000Y-100837171D01*
X93955000Y-100840000D01*
X93335000Y-100840000D01*
X93335000Y-100717824D01*
X92659812Y-99087774D01*
X91412226Y-97840188D01*
X89782176Y-97165000D01*
X88017824Y-97165000D01*
X86387774Y-97840188D01*
X85140188Y-99087774D01*
X84465000Y-100717824D01*
X83768000Y-100717824D01*
X83768000Y-96133302D01*
X103821856Y-96133302D01*
X103849638Y-96688368D01*
X104008603Y-97072143D01*
X104250787Y-97141608D01*
X105051395Y-96341000D01*
X105410605Y-96341000D01*
X106211213Y-97141608D01*
X106453397Y-97072143D01*
X106640144Y-96548698D01*
X106630436Y-96354724D01*
X109195000Y-96354724D01*
X109195000Y-96985276D01*
X109436302Y-97567830D01*
X109882170Y-98013698D01*
X110464724Y-98255000D01*
X111095276Y-98255000D01*
X111677830Y-98013698D01*
X112123698Y-97567830D01*
X112180789Y-97430000D01*
X113682560Y-97430000D01*
X113682560Y-97620000D01*
X113731843Y-97867765D01*
X113872191Y-98077809D01*
X114082235Y-98218157D01*
X114330000Y-98267440D01*
X116230000Y-98267440D01*
X116477765Y-98218157D01*
X116687809Y-98077809D01*
X116828157Y-97867765D01*
X116877440Y-97620000D01*
X116877440Y-95720000D01*
X116828157Y-95472235D01*
X116687809Y-95262191D01*
X116477765Y-95121843D01*
X116230000Y-95072560D01*
X114330000Y-95072560D01*
X114082235Y-95121843D01*
X113872191Y-95262191D01*
X113731843Y-95472235D01*
X113682560Y-95720000D01*
X113682560Y-95910000D01*
X112180789Y-95910000D01*
X112123698Y-95772170D01*
X111677830Y-95326302D01*
X111095276Y-95085000D01*
X110464724Y-95085000D01*
X109882170Y-95326302D01*
X109436302Y-95772170D01*
X109195000Y-96354724D01*
X106630436Y-96354724D01*
X106612362Y-95993632D01*
X106453397Y-95609857D01*
X106211213Y-95540392D01*
X105410605Y-96341000D01*
X105051395Y-96341000D01*
X104250787Y-95540392D01*
X104008603Y-95609857D01*
X103821856Y-96133302D01*
X83768000Y-96133302D01*
X83768000Y-94781213D01*
X104430392Y-94781213D01*
X104499857Y-95023397D01*
X104623344Y-95067453D01*
X104499857Y-95118603D01*
X104430392Y-95360787D01*
X105231000Y-96161395D01*
X106031608Y-95360787D01*
X105962143Y-95118603D01*
X105838656Y-95074547D01*
X105962143Y-95023397D01*
X106031608Y-94781213D01*
X105231000Y-93980605D01*
X104430392Y-94781213D01*
X83768000Y-94781213D01*
X83768000Y-93593302D01*
X103821856Y-93593302D01*
X103849638Y-94148368D01*
X104008603Y-94532143D01*
X104250787Y-94601608D01*
X105051395Y-93801000D01*
X105410605Y-93801000D01*
X106211213Y-94601608D01*
X106453397Y-94532143D01*
X106640144Y-94008698D01*
X106612362Y-93453632D01*
X106453397Y-93069857D01*
X106211213Y-93000392D01*
X105410605Y-93801000D01*
X105051395Y-93801000D01*
X104250787Y-93000392D01*
X104008603Y-93069857D01*
X103821856Y-93593302D01*
X83768000Y-93593302D01*
X83768000Y-87693431D01*
X84125000Y-87693431D01*
X84125000Y-88582569D01*
X84465259Y-89404026D01*
X85093974Y-90032741D01*
X85915431Y-90373000D01*
X86804569Y-90373000D01*
X87626026Y-90032741D01*
X88254741Y-89404026D01*
X88595000Y-88582569D01*
X88595000Y-87959000D01*
X103821560Y-87959000D01*
X103821560Y-89483000D01*
X103870843Y-89730765D01*
X104011191Y-89940809D01*
X104221235Y-90081157D01*
X104399690Y-90116653D01*
X104046680Y-90469663D01*
X103834000Y-90983119D01*
X103834000Y-91538881D01*
X104046680Y-92052337D01*
X104439663Y-92445320D01*
X104630647Y-92524428D01*
X104499857Y-92578603D01*
X104430392Y-92820787D01*
X105231000Y-93621395D01*
X106031608Y-92820787D01*
X105962143Y-92578603D01*
X105821607Y-92528465D01*
X106022337Y-92445320D01*
X106023423Y-92444234D01*
X109395000Y-92444234D01*
X109395000Y-92895766D01*
X109567793Y-93312926D01*
X109887074Y-93632207D01*
X110304234Y-93805000D01*
X110755766Y-93805000D01*
X111172926Y-93632207D01*
X111492207Y-93312926D01*
X111665000Y-92895766D01*
X111665000Y-92444234D01*
X114395000Y-92444234D01*
X114395000Y-92895766D01*
X114567793Y-93312926D01*
X114887074Y-93632207D01*
X115304234Y-93805000D01*
X115755766Y-93805000D01*
X116172926Y-93632207D01*
X116492207Y-93312926D01*
X116665000Y-92895766D01*
X116665000Y-92444234D01*
X116492207Y-92027074D01*
X116172926Y-91707793D01*
X115755766Y-91535000D01*
X115304234Y-91535000D01*
X114887074Y-91707793D01*
X114567793Y-92027074D01*
X114395000Y-92444234D01*
X111665000Y-92444234D01*
X111492207Y-92027074D01*
X111172926Y-91707793D01*
X110755766Y-91535000D01*
X110304234Y-91535000D01*
X109887074Y-91707793D01*
X109567793Y-92027074D01*
X109395000Y-92444234D01*
X106023423Y-92444234D01*
X106415320Y-92052337D01*
X106628000Y-91538881D01*
X106628000Y-91053302D01*
X119061856Y-91053302D01*
X119089638Y-91608368D01*
X119248603Y-91992143D01*
X119490787Y-92061608D01*
X120291395Y-91261000D01*
X119490787Y-90460392D01*
X119248603Y-90529857D01*
X119061856Y-91053302D01*
X106628000Y-91053302D01*
X106628000Y-90983119D01*
X106415320Y-90469663D01*
X106062310Y-90116653D01*
X106240765Y-90081157D01*
X106450809Y-89940809D01*
X106591157Y-89730765D01*
X106640440Y-89483000D01*
X106640440Y-88854724D01*
X108545000Y-88854724D01*
X108545000Y-89485276D01*
X108786302Y-90067830D01*
X109232170Y-90513698D01*
X109814724Y-90755000D01*
X110445276Y-90755000D01*
X111027830Y-90513698D01*
X111473698Y-90067830D01*
X111530789Y-89930000D01*
X114529211Y-89930000D01*
X114586302Y-90067830D01*
X115032170Y-90513698D01*
X115614724Y-90755000D01*
X116245276Y-90755000D01*
X116827830Y-90513698D01*
X117273698Y-90067830D01*
X117515000Y-89485276D01*
X117515000Y-88854724D01*
X117273698Y-88272170D01*
X116827830Y-87826302D01*
X116245276Y-87585000D01*
X115614724Y-87585000D01*
X115032170Y-87826302D01*
X114586302Y-88272170D01*
X114529211Y-88410000D01*
X111530789Y-88410000D01*
X111473698Y-88272170D01*
X111027830Y-87826302D01*
X110445276Y-87585000D01*
X109814724Y-87585000D01*
X109232170Y-87826302D01*
X108786302Y-88272170D01*
X108545000Y-88854724D01*
X106640440Y-88854724D01*
X106640440Y-87959000D01*
X106591157Y-87711235D01*
X106450809Y-87501191D01*
X106240765Y-87360843D01*
X105993000Y-87311560D01*
X104469000Y-87311560D01*
X104221235Y-87360843D01*
X104011191Y-87501191D01*
X103870843Y-87711235D01*
X103821560Y-87959000D01*
X88595000Y-87959000D01*
X88595000Y-87693431D01*
X88254741Y-86871974D01*
X87626026Y-86243259D01*
X86804569Y-85903000D01*
X85915431Y-85903000D01*
X85093974Y-86243259D01*
X84465259Y-86871974D01*
X84125000Y-87693431D01*
X83768000Y-87693431D01*
X83768000Y-85546000D01*
X121210001Y-85546000D01*
X121210001Y-87515002D01*
X121210001Y-87515002D01*
G37*
X121210001Y-87515002D02*
X120748881Y-87324000D01*
X120193119Y-87324000D01*
X119679663Y-87536680D01*
X119286680Y-87929663D01*
X119074000Y-88443119D01*
X119074000Y-88998881D01*
X119286680Y-89512337D01*
X119679663Y-89905320D01*
X119870647Y-89984428D01*
X119739857Y-90038603D01*
X119670392Y-90280787D01*
X120471000Y-91081395D01*
X120485143Y-91067253D01*
X120664748Y-91246858D01*
X120650605Y-91261000D01*
X120664748Y-91275143D01*
X120485143Y-91454748D01*
X120471000Y-91440605D01*
X119670392Y-92241213D01*
X119739857Y-92483397D01*
X119880393Y-92533535D01*
X119679663Y-92616680D01*
X119286680Y-93009663D01*
X119074000Y-93523119D01*
X119074000Y-94078881D01*
X119286680Y-94592337D01*
X119679663Y-94985320D01*
X119886513Y-95071000D01*
X119679663Y-95156680D01*
X119286680Y-95549663D01*
X119074000Y-96063119D01*
X119074000Y-96618881D01*
X119086980Y-96650218D01*
X118133630Y-97603569D01*
X118070171Y-97645971D01*
X117902196Y-97897364D01*
X117858100Y-98119049D01*
X117858100Y-98119053D01*
X117843212Y-98193900D01*
X117858100Y-98268747D01*
X117858100Y-104976398D01*
X117371881Y-104775000D01*
X116816119Y-104775000D01*
X116302663Y-104987680D01*
X115909680Y-105380663D01*
X115896700Y-105412000D01*
X113211300Y-105412000D01*
X113198320Y-105380663D01*
X112805337Y-104987680D01*
X112291881Y-104775000D01*
X111736119Y-104775000D01*
X111222663Y-104987680D01*
X110829680Y-105380663D01*
X110617000Y-105894119D01*
X110617000Y-106449881D01*
X110829680Y-106963337D01*
X111222663Y-107356320D01*
X111736119Y-107569000D01*
X112291881Y-107569000D01*
X112805337Y-107356320D01*
X113198320Y-106963337D01*
X113211300Y-106932000D01*
X115896700Y-106932000D01*
X115909680Y-106963337D01*
X116302663Y-107356320D01*
X116816119Y-107569000D01*
X117371881Y-107569000D01*
X117858101Y-107367602D01*
X117858101Y-111953097D01*
X117403218Y-112407980D01*
X117371881Y-112395000D01*
X116816119Y-112395000D01*
X116302663Y-112607680D01*
X115909680Y-113000663D01*
X115697000Y-113514119D01*
X115697000Y-114069881D01*
X115709980Y-114101218D01*
X115683799Y-114127400D01*
X113387175Y-114127400D01*
X113411000Y-114069881D01*
X113411000Y-113514119D01*
X113198320Y-113000663D01*
X112805337Y-112607680D01*
X112291881Y-112395000D01*
X111736119Y-112395000D01*
X111704782Y-112407980D01*
X110608345Y-111311544D01*
X110620189Y-111252000D01*
X110561204Y-110955463D01*
X110393229Y-110704071D01*
X110141837Y-110536096D01*
X110023489Y-110512555D01*
X109977809Y-110444191D01*
X109967109Y-110437042D01*
X109935904Y-110280163D01*
X109767929Y-110028771D01*
X109739232Y-110009596D01*
X109759440Y-109908000D01*
X109759440Y-109008000D01*
X109710157Y-108760235D01*
X109573316Y-108555440D01*
X110062000Y-108555440D01*
X110309765Y-108506157D01*
X110519809Y-108365809D01*
X110660157Y-108155765D01*
X110709440Y-107908000D01*
X110709440Y-107008000D01*
X110660157Y-106760235D01*
X110519809Y-106550191D01*
X110363061Y-106445454D01*
X110492505Y-106251727D01*
X110558440Y-105920250D01*
X110558440Y-105407750D01*
X110492505Y-105076273D01*
X110304739Y-104795261D01*
X110023727Y-104607495D01*
X109692250Y-104541560D01*
X109425862Y-104541560D01*
X108360831Y-103476530D01*
X108318429Y-103413071D01*
X108067037Y-103245096D01*
X107845352Y-103201000D01*
X107845347Y-103201000D01*
X107770500Y-103186112D01*
X107695653Y-103201000D01*
X106428300Y-103201000D01*
X106415320Y-103169663D01*
X106022337Y-102776680D01*
X105815487Y-102691000D01*
X106022337Y-102605320D01*
X106415320Y-102212337D01*
X106628000Y-101698881D01*
X106628000Y-101143119D01*
X106527890Y-100901431D01*
X113081000Y-100901431D01*
X113081000Y-101790569D01*
X113421259Y-102612026D01*
X114049974Y-103240741D01*
X114871431Y-103581000D01*
X115760569Y-103581000D01*
X116582026Y-103240741D01*
X117210741Y-102612026D01*
X117551000Y-101790569D01*
X117551000Y-100901431D01*
X117210741Y-100079974D01*
X116582026Y-99451259D01*
X115760569Y-99111000D01*
X114871431Y-99111000D01*
X114049974Y-99451259D01*
X113421259Y-100079974D01*
X113081000Y-100901431D01*
X106527890Y-100901431D01*
X106415320Y-100629663D01*
X106022337Y-100236680D01*
X105815487Y-100151000D01*
X106022337Y-100065320D01*
X106415320Y-99672337D01*
X106628000Y-99158881D01*
X106628000Y-98603119D01*
X106415320Y-98089663D01*
X106022337Y-97696680D01*
X105831353Y-97617572D01*
X105962143Y-97563397D01*
X106031608Y-97321213D01*
X105231000Y-96520605D01*
X104430392Y-97321213D01*
X104499857Y-97563397D01*
X104640393Y-97613535D01*
X104439663Y-97696680D01*
X104046680Y-98089663D01*
X103834000Y-98603119D01*
X103834000Y-99158881D01*
X104046680Y-99672337D01*
X104439663Y-100065320D01*
X104646513Y-100151000D01*
X104439663Y-100236680D01*
X104046680Y-100629663D01*
X103834000Y-101143119D01*
X103834000Y-101698881D01*
X104046680Y-102212337D01*
X104439663Y-102605320D01*
X104646513Y-102691000D01*
X104439663Y-102776680D01*
X104046680Y-103169663D01*
X103834000Y-103683119D01*
X103834000Y-104238881D01*
X104046680Y-104752337D01*
X104439663Y-105145320D01*
X104646513Y-105231000D01*
X104439663Y-105316680D01*
X104046680Y-105709663D01*
X103834000Y-106223119D01*
X103834000Y-106778881D01*
X104046680Y-107292337D01*
X104439663Y-107685320D01*
X104646513Y-107771000D01*
X104439663Y-107856680D01*
X104046680Y-108249663D01*
X103834000Y-108763119D01*
X103834000Y-109318881D01*
X104046680Y-109832337D01*
X104177620Y-109963277D01*
X102385528Y-111755371D01*
X102322072Y-111797771D01*
X102279672Y-111861227D01*
X102279671Y-111861228D01*
X102154097Y-112049163D01*
X102095112Y-112345700D01*
X102110001Y-112420552D01*
X102110000Y-114412604D01*
X102001261Y-114485261D01*
X101998373Y-114489584D01*
X101960739Y-114433261D01*
X101679727Y-114245495D01*
X101348250Y-114179560D01*
X100835750Y-114179560D01*
X100504273Y-114245495D01*
X100223261Y-114433261D01*
X100035495Y-114714273D01*
X99969560Y-115045750D01*
X99969560Y-115483250D01*
X100035495Y-115814727D01*
X100194036Y-116052000D01*
X100035495Y-116289273D01*
X99969560Y-116620750D01*
X99969560Y-117058250D01*
X100035495Y-117389727D01*
X100042359Y-117400000D01*
X83768000Y-117400000D01*
X83768000Y-114109431D01*
X84125000Y-114109431D01*
X84125000Y-114998569D01*
X84465259Y-115820026D01*
X85093974Y-116448741D01*
X85915431Y-116789000D01*
X86804569Y-116789000D01*
X87626026Y-116448741D01*
X88254741Y-115820026D01*
X88595000Y-114998569D01*
X88595000Y-114109431D01*
X88254741Y-113287974D01*
X87626026Y-112659259D01*
X86804569Y-112319000D01*
X85915431Y-112319000D01*
X85093974Y-112659259D01*
X84465259Y-113287974D01*
X84125000Y-114109431D01*
X83768000Y-114109431D01*
X83768000Y-100717824D01*
X84465000Y-100717824D01*
X84465000Y-102482176D01*
X85140188Y-104112226D01*
X86387774Y-105359812D01*
X88017824Y-106035000D01*
X89782176Y-106035000D01*
X91412226Y-105359812D01*
X92659812Y-104112226D01*
X93335000Y-102482176D01*
X93335000Y-102360000D01*
X93955000Y-102360000D01*
X93955000Y-102362829D01*
X94538844Y-103772353D01*
X95617647Y-104851156D01*
X97027171Y-105435000D01*
X98552829Y-105435000D01*
X99962353Y-104851156D01*
X101041156Y-103772353D01*
X101625000Y-102362829D01*
X101625000Y-100837171D01*
X101041156Y-99427647D01*
X99962353Y-98348844D01*
X98552829Y-97765000D01*
X97027171Y-97765000D01*
X95617647Y-98348844D01*
X94538844Y-99427647D01*
X93955000Y-100837171D01*
X93955000Y-100840000D01*
X93335000Y-100840000D01*
X93335000Y-100717824D01*
X92659812Y-99087774D01*
X91412226Y-97840188D01*
X89782176Y-97165000D01*
X88017824Y-97165000D01*
X86387774Y-97840188D01*
X85140188Y-99087774D01*
X84465000Y-100717824D01*
X83768000Y-100717824D01*
X83768000Y-96133302D01*
X103821856Y-96133302D01*
X103849638Y-96688368D01*
X104008603Y-97072143D01*
X104250787Y-97141608D01*
X105051395Y-96341000D01*
X105410605Y-96341000D01*
X106211213Y-97141608D01*
X106453397Y-97072143D01*
X106640144Y-96548698D01*
X106630436Y-96354724D01*
X109195000Y-96354724D01*
X109195000Y-96985276D01*
X109436302Y-97567830D01*
X109882170Y-98013698D01*
X110464724Y-98255000D01*
X111095276Y-98255000D01*
X111677830Y-98013698D01*
X112123698Y-97567830D01*
X112180789Y-97430000D01*
X113682560Y-97430000D01*
X113682560Y-97620000D01*
X113731843Y-97867765D01*
X113872191Y-98077809D01*
X114082235Y-98218157D01*
X114330000Y-98267440D01*
X116230000Y-98267440D01*
X116477765Y-98218157D01*
X116687809Y-98077809D01*
X116828157Y-97867765D01*
X116877440Y-97620000D01*
X116877440Y-95720000D01*
X116828157Y-95472235D01*
X116687809Y-95262191D01*
X116477765Y-95121843D01*
X116230000Y-95072560D01*
X114330000Y-95072560D01*
X114082235Y-95121843D01*
X113872191Y-95262191D01*
X113731843Y-95472235D01*
X113682560Y-95720000D01*
X113682560Y-95910000D01*
X112180789Y-95910000D01*
X112123698Y-95772170D01*
X111677830Y-95326302D01*
X111095276Y-95085000D01*
X110464724Y-95085000D01*
X109882170Y-95326302D01*
X109436302Y-95772170D01*
X109195000Y-96354724D01*
X106630436Y-96354724D01*
X106612362Y-95993632D01*
X106453397Y-95609857D01*
X106211213Y-95540392D01*
X105410605Y-96341000D01*
X105051395Y-96341000D01*
X104250787Y-95540392D01*
X104008603Y-95609857D01*
X103821856Y-96133302D01*
X83768000Y-96133302D01*
X83768000Y-94781213D01*
X104430392Y-94781213D01*
X104499857Y-95023397D01*
X104623344Y-95067453D01*
X104499857Y-95118603D01*
X104430392Y-95360787D01*
X105231000Y-96161395D01*
X106031608Y-95360787D01*
X105962143Y-95118603D01*
X105838656Y-95074547D01*
X105962143Y-95023397D01*
X106031608Y-94781213D01*
X105231000Y-93980605D01*
X104430392Y-94781213D01*
X83768000Y-94781213D01*
X83768000Y-93593302D01*
X103821856Y-93593302D01*
X103849638Y-94148368D01*
X104008603Y-94532143D01*
X104250787Y-94601608D01*
X105051395Y-93801000D01*
X105410605Y-93801000D01*
X106211213Y-94601608D01*
X106453397Y-94532143D01*
X106640144Y-94008698D01*
X106612362Y-93453632D01*
X106453397Y-93069857D01*
X106211213Y-93000392D01*
X105410605Y-93801000D01*
X105051395Y-93801000D01*
X104250787Y-93000392D01*
X104008603Y-93069857D01*
X103821856Y-93593302D01*
X83768000Y-93593302D01*
X83768000Y-87693431D01*
X84125000Y-87693431D01*
X84125000Y-88582569D01*
X84465259Y-89404026D01*
X85093974Y-90032741D01*
X85915431Y-90373000D01*
X86804569Y-90373000D01*
X87626026Y-90032741D01*
X88254741Y-89404026D01*
X88595000Y-88582569D01*
X88595000Y-87959000D01*
X103821560Y-87959000D01*
X103821560Y-89483000D01*
X103870843Y-89730765D01*
X104011191Y-89940809D01*
X104221235Y-90081157D01*
X104399690Y-90116653D01*
X104046680Y-90469663D01*
X103834000Y-90983119D01*
X103834000Y-91538881D01*
X104046680Y-92052337D01*
X104439663Y-92445320D01*
X104630647Y-92524428D01*
X104499857Y-92578603D01*
X104430392Y-92820787D01*
X105231000Y-93621395D01*
X106031608Y-92820787D01*
X105962143Y-92578603D01*
X105821607Y-92528465D01*
X106022337Y-92445320D01*
X106023423Y-92444234D01*
X109395000Y-92444234D01*
X109395000Y-92895766D01*
X109567793Y-93312926D01*
X109887074Y-93632207D01*
X110304234Y-93805000D01*
X110755766Y-93805000D01*
X111172926Y-93632207D01*
X111492207Y-93312926D01*
X111665000Y-92895766D01*
X111665000Y-92444234D01*
X114395000Y-92444234D01*
X114395000Y-92895766D01*
X114567793Y-93312926D01*
X114887074Y-93632207D01*
X115304234Y-93805000D01*
X115755766Y-93805000D01*
X116172926Y-93632207D01*
X116492207Y-93312926D01*
X116665000Y-92895766D01*
X116665000Y-92444234D01*
X116492207Y-92027074D01*
X116172926Y-91707793D01*
X115755766Y-91535000D01*
X115304234Y-91535000D01*
X114887074Y-91707793D01*
X114567793Y-92027074D01*
X114395000Y-92444234D01*
X111665000Y-92444234D01*
X111492207Y-92027074D01*
X111172926Y-91707793D01*
X110755766Y-91535000D01*
X110304234Y-91535000D01*
X109887074Y-91707793D01*
X109567793Y-92027074D01*
X109395000Y-92444234D01*
X106023423Y-92444234D01*
X106415320Y-92052337D01*
X106628000Y-91538881D01*
X106628000Y-91053302D01*
X119061856Y-91053302D01*
X119089638Y-91608368D01*
X119248603Y-91992143D01*
X119490787Y-92061608D01*
X120291395Y-91261000D01*
X119490787Y-90460392D01*
X119248603Y-90529857D01*
X119061856Y-91053302D01*
X106628000Y-91053302D01*
X106628000Y-90983119D01*
X106415320Y-90469663D01*
X106062310Y-90116653D01*
X106240765Y-90081157D01*
X106450809Y-89940809D01*
X106591157Y-89730765D01*
X106640440Y-89483000D01*
X106640440Y-88854724D01*
X108545000Y-88854724D01*
X108545000Y-89485276D01*
X108786302Y-90067830D01*
X109232170Y-90513698D01*
X109814724Y-90755000D01*
X110445276Y-90755000D01*
X111027830Y-90513698D01*
X111473698Y-90067830D01*
X111530789Y-89930000D01*
X114529211Y-89930000D01*
X114586302Y-90067830D01*
X115032170Y-90513698D01*
X115614724Y-90755000D01*
X116245276Y-90755000D01*
X116827830Y-90513698D01*
X117273698Y-90067830D01*
X117515000Y-89485276D01*
X117515000Y-88854724D01*
X117273698Y-88272170D01*
X116827830Y-87826302D01*
X116245276Y-87585000D01*
X115614724Y-87585000D01*
X115032170Y-87826302D01*
X114586302Y-88272170D01*
X114529211Y-88410000D01*
X111530789Y-88410000D01*
X111473698Y-88272170D01*
X111027830Y-87826302D01*
X110445276Y-87585000D01*
X109814724Y-87585000D01*
X109232170Y-87826302D01*
X108786302Y-88272170D01*
X108545000Y-88854724D01*
X106640440Y-88854724D01*
X106640440Y-87959000D01*
X106591157Y-87711235D01*
X106450809Y-87501191D01*
X106240765Y-87360843D01*
X105993000Y-87311560D01*
X104469000Y-87311560D01*
X104221235Y-87360843D01*
X104011191Y-87501191D01*
X103870843Y-87711235D01*
X103821560Y-87959000D01*
X88595000Y-87959000D01*
X88595000Y-87693431D01*
X88254741Y-86871974D01*
X87626026Y-86243259D01*
X86804569Y-85903000D01*
X85915431Y-85903000D01*
X85093974Y-86243259D01*
X84465259Y-86871974D01*
X84125000Y-87693431D01*
X83768000Y-87693431D01*
X83768000Y-85546000D01*
X121210001Y-85546000D01*
X121210001Y-87515002D01*
G36*
X106922673Y-104829301D02*
X106826000Y-105062690D01*
X106826000Y-105378250D01*
X106984750Y-105537000D01*
X107771500Y-105537000D01*
X107771500Y-105517000D01*
X108025500Y-105517000D01*
X108025500Y-105537000D01*
X108045500Y-105537000D01*
X108045500Y-105791000D01*
X108025500Y-105791000D01*
X108025500Y-105811000D01*
X107771500Y-105811000D01*
X107771500Y-105791000D01*
X106984750Y-105791000D01*
X106826000Y-105949750D01*
X106826000Y-106265310D01*
X106922673Y-106498699D01*
X106947974Y-106524000D01*
X106823673Y-106648302D01*
X106727000Y-106881691D01*
X106727000Y-107172250D01*
X106885750Y-107331000D01*
X107635000Y-107331000D01*
X107635000Y-107311000D01*
X107889000Y-107311000D01*
X107889000Y-107331000D01*
X107909000Y-107331000D01*
X107909000Y-107585000D01*
X107889000Y-107585000D01*
X107889000Y-108384250D01*
X107974531Y-108469781D01*
X107854191Y-108550191D01*
X107731451Y-108733883D01*
X107690163Y-108742096D01*
X107438771Y-108910071D01*
X107396371Y-108973527D01*
X106946599Y-109423300D01*
X106584748Y-109423300D01*
X106628000Y-109318881D01*
X106628000Y-108763119D01*
X106415320Y-108249663D01*
X106022337Y-107856680D01*
X105815487Y-107771000D01*
X105881274Y-107743750D01*
X106727000Y-107743750D01*
X106727000Y-108034309D01*
X106823673Y-108267698D01*
X107002301Y-108446327D01*
X107235690Y-108543000D01*
X107476250Y-108543000D01*
X107635000Y-108384250D01*
X107635000Y-107585000D01*
X106885750Y-107585000D01*
X106727000Y-107743750D01*
X105881274Y-107743750D01*
X106022337Y-107685320D01*
X106415320Y-107292337D01*
X106628000Y-106778881D01*
X106628000Y-106223119D01*
X106415320Y-105709663D01*
X106022337Y-105316680D01*
X105815487Y-105231000D01*
X106022337Y-105145320D01*
X106415320Y-104752337D01*
X106428300Y-104721000D01*
X107030975Y-104721000D01*
X106922673Y-104829301D01*
X106922673Y-104829301D01*
G37*
X106922673Y-104829301D02*
X106826000Y-105062690D01*
X106826000Y-105378250D01*
X106984750Y-105537000D01*
X107771500Y-105537000D01*
X107771500Y-105517000D01*
X108025500Y-105517000D01*
X108025500Y-105537000D01*
X108045500Y-105537000D01*
X108045500Y-105791000D01*
X108025500Y-105791000D01*
X108025500Y-105811000D01*
X107771500Y-105811000D01*
X107771500Y-105791000D01*
X106984750Y-105791000D01*
X106826000Y-105949750D01*
X106826000Y-106265310D01*
X106922673Y-106498699D01*
X106947974Y-106524000D01*
X106823673Y-106648302D01*
X106727000Y-106881691D01*
X106727000Y-107172250D01*
X106885750Y-107331000D01*
X107635000Y-107331000D01*
X107635000Y-107311000D01*
X107889000Y-107311000D01*
X107889000Y-107331000D01*
X107909000Y-107331000D01*
X107909000Y-107585000D01*
X107889000Y-107585000D01*
X107889000Y-108384250D01*
X107974531Y-108469781D01*
X107854191Y-108550191D01*
X107731451Y-108733883D01*
X107690163Y-108742096D01*
X107438771Y-108910071D01*
X107396371Y-108973527D01*
X106946599Y-109423300D01*
X106584748Y-109423300D01*
X106628000Y-109318881D01*
X106628000Y-108763119D01*
X106415320Y-108249663D01*
X106022337Y-107856680D01*
X105815487Y-107771000D01*
X105881274Y-107743750D01*
X106727000Y-107743750D01*
X106727000Y-108034309D01*
X106823673Y-108267698D01*
X107002301Y-108446327D01*
X107235690Y-108543000D01*
X107476250Y-108543000D01*
X107635000Y-108384250D01*
X107635000Y-107585000D01*
X106885750Y-107585000D01*
X106727000Y-107743750D01*
X105881274Y-107743750D01*
X106022337Y-107685320D01*
X106415320Y-107292337D01*
X106628000Y-106778881D01*
X106628000Y-106223119D01*
X106415320Y-105709663D01*
X106022337Y-105316680D01*
X105815487Y-105231000D01*
X106022337Y-105145320D01*
X106415320Y-104752337D01*
X106428300Y-104721000D01*
X107030975Y-104721000D01*
X106922673Y-104829301D01*
G04 #@! TD*
M02*
