G04 #@! TF.GenerationSoftware,KiCad,Pcbnew,5.0.1-33cea8e~66~ubuntu18.04.1*
G04 #@! TF.CreationDate,2018-10-18T18:40:30+09:00*
G04 #@! TF.ProjectId,touch_relay_jack,746F7563685F72656C61795F6A61636B,rev?*
G04 #@! TF.SameCoordinates,Original*
G04 #@! TF.FileFunction,Legend,Top*
G04 #@! TF.FilePolarity,Positive*
%FSLAX46Y46*%
G04 Gerber Fmt 4.6, Leading zero omitted, Abs format (unit mm)*
G04 Created by KiCad (PCBNEW 5.0.1-33cea8e~66~ubuntu18.04.1) date 2018年10月18日 18時40分30秒*
%MOMM*%
%LPD*%
G01*
G04 APERTURE LIST*
%ADD10C,0.120000*%
%ADD11C,0.150000*%
G04 APERTURE END LIST*
D10*
G04 #@! TO.C,D1*
X107370000Y-110652000D02*
X107370000Y-111852000D01*
X109220000Y-110652000D02*
X107370000Y-110652000D01*
X109220000Y-111852000D02*
X107370000Y-111852000D01*
G04 #@! TO.C,D2*
X100357000Y-115252000D02*
X100357000Y-117537000D01*
X100357000Y-117537000D02*
X101827000Y-117537000D01*
X101827000Y-117537000D02*
X101827000Y-115252000D01*
G04 #@! TO.C,J1*
X109580000Y-87970000D02*
X109580000Y-85470000D01*
X109580000Y-85470000D02*
X110330000Y-85470000D01*
X115730000Y-85470000D02*
X116480000Y-85470000D01*
X116480000Y-85470000D02*
X116480000Y-87970000D01*
X116480000Y-90370000D02*
X116480000Y-95470000D01*
X109580000Y-90370000D02*
X109580000Y-97370000D01*
X114080000Y-97370000D02*
X111980000Y-97370000D01*
D11*
G04 #@! TO.C,K1*
X110644000Y-117512000D02*
X118464000Y-117512000D01*
X118464000Y-117512000D02*
X118464000Y-104992000D01*
X118464000Y-104992000D02*
X110644000Y-104992000D01*
X110644000Y-104992000D02*
X110644000Y-117512000D01*
X110388400Y-116636800D02*
X110388400Y-117779800D01*
X110388400Y-117779800D02*
X111721900Y-117779800D01*
X112014000Y-112776000D02*
X112014000Y-112268000D01*
X112014000Y-112268000D02*
X113284000Y-112268000D01*
X115824000Y-112268000D02*
X117094000Y-112268000D01*
X117094000Y-112268000D02*
X117094000Y-112776000D01*
X113284000Y-113030000D02*
X113284000Y-111506000D01*
X113284000Y-111506000D02*
X115824000Y-111506000D01*
X115824000Y-111506000D02*
X115824000Y-113030000D01*
X115824000Y-113030000D02*
X113284000Y-113030000D01*
X114046000Y-113030000D02*
X115062000Y-111506000D01*
D10*
G04 #@! TO.C,Q1*
X107132000Y-109218000D02*
X108062000Y-109218000D01*
X110292000Y-109218000D02*
X109362000Y-109218000D01*
X110292000Y-109218000D02*
X110292000Y-107058000D01*
X107132000Y-109218000D02*
X107132000Y-107758000D01*
G04 #@! TO.C,R1*
X103380000Y-115941221D02*
X103380000Y-116266779D01*
X102360000Y-115941221D02*
X102360000Y-116266779D01*
G04 #@! TO.C,R2*
X108523221Y-106174000D02*
X108848779Y-106174000D01*
X108523221Y-105154000D02*
X108848779Y-105154000D01*
G04 #@! TO.C,R3*
X108594779Y-116080000D02*
X108269221Y-116080000D01*
X108594779Y-115060000D02*
X108269221Y-115060000D01*
G04 #@! TO.C,D1*
D11*
X107781904Y-112974380D02*
X107781904Y-111974380D01*
X108020000Y-111974380D01*
X108162857Y-112022000D01*
X108258095Y-112117238D01*
X108305714Y-112212476D01*
X108353333Y-112402952D01*
X108353333Y-112545809D01*
X108305714Y-112736285D01*
X108258095Y-112831523D01*
X108162857Y-112926761D01*
X108020000Y-112974380D01*
X107781904Y-112974380D01*
X109305714Y-112974380D02*
X108734285Y-112974380D01*
X109020000Y-112974380D02*
X109020000Y-111974380D01*
X108924761Y-112117238D01*
X108829523Y-112212476D01*
X108734285Y-112260095D01*
G04 #@! TO.C,D2*
X101798380Y-114275595D02*
X100798380Y-114275595D01*
X100798380Y-114037500D01*
X100846000Y-113894642D01*
X100941238Y-113799404D01*
X101036476Y-113751785D01*
X101226952Y-113704166D01*
X101369809Y-113704166D01*
X101560285Y-113751785D01*
X101655523Y-113799404D01*
X101750761Y-113894642D01*
X101798380Y-114037500D01*
X101798380Y-114275595D01*
X100893619Y-113323214D02*
X100846000Y-113275595D01*
X100798380Y-113180357D01*
X100798380Y-112942261D01*
X100846000Y-112847023D01*
X100893619Y-112799404D01*
X100988857Y-112751785D01*
X101084095Y-112751785D01*
X101226952Y-112799404D01*
X101798380Y-113370833D01*
X101798380Y-112751785D01*
G04 #@! TO.C,J1*
X116982380Y-90503333D02*
X117696666Y-90503333D01*
X117839523Y-90550952D01*
X117934761Y-90646190D01*
X117982380Y-90789047D01*
X117982380Y-90884285D01*
X117982380Y-89503333D02*
X117982380Y-90074761D01*
X117982380Y-89789047D02*
X116982380Y-89789047D01*
X117125238Y-89884285D01*
X117220476Y-89979523D01*
X117268095Y-90074761D01*
G04 #@! TO.C,K1*
X110767904Y-104592380D02*
X110767904Y-103592380D01*
X111339333Y-104592380D02*
X110910761Y-104020952D01*
X111339333Y-103592380D02*
X110767904Y-104163809D01*
X112291714Y-104592380D02*
X111720285Y-104592380D01*
X112006000Y-104592380D02*
X112006000Y-103592380D01*
X111910761Y-103735238D01*
X111815523Y-103830476D01*
X111720285Y-103878095D01*
G04 #@! TO.C,R1*
X103322380Y-113705166D02*
X102846190Y-114038500D01*
X103322380Y-114276595D02*
X102322380Y-114276595D01*
X102322380Y-113895642D01*
X102370000Y-113800404D01*
X102417619Y-113752785D01*
X102512857Y-113705166D01*
X102655714Y-113705166D01*
X102750952Y-113752785D01*
X102798571Y-113800404D01*
X102846190Y-113895642D01*
X102846190Y-114276595D01*
X103322380Y-112752785D02*
X103322380Y-113324214D01*
X103322380Y-113038500D02*
X102322380Y-113038500D01*
X102465238Y-113133738D01*
X102560476Y-113228976D01*
X102608095Y-113324214D01*
G04 #@! TO.C,R2*
X108519333Y-104686380D02*
X108186000Y-104210190D01*
X107947904Y-104686380D02*
X107947904Y-103686380D01*
X108328857Y-103686380D01*
X108424095Y-103734000D01*
X108471714Y-103781619D01*
X108519333Y-103876857D01*
X108519333Y-104019714D01*
X108471714Y-104114952D01*
X108424095Y-104162571D01*
X108328857Y-104210190D01*
X107947904Y-104210190D01*
X108900285Y-103781619D02*
X108947904Y-103734000D01*
X109043142Y-103686380D01*
X109281238Y-103686380D01*
X109376476Y-103734000D01*
X109424095Y-103781619D01*
X109471714Y-103876857D01*
X109471714Y-103972095D01*
X109424095Y-104114952D01*
X108852666Y-104686380D01*
X109471714Y-104686380D01*
G04 #@! TO.C,R3*
X108265333Y-117452380D02*
X107932000Y-116976190D01*
X107693904Y-117452380D02*
X107693904Y-116452380D01*
X108074857Y-116452380D01*
X108170095Y-116500000D01*
X108217714Y-116547619D01*
X108265333Y-116642857D01*
X108265333Y-116785714D01*
X108217714Y-116880952D01*
X108170095Y-116928571D01*
X108074857Y-116976190D01*
X107693904Y-116976190D01*
X108598666Y-116452380D02*
X109217714Y-116452380D01*
X108884380Y-116833333D01*
X109027238Y-116833333D01*
X109122476Y-116880952D01*
X109170095Y-116928571D01*
X109217714Y-117023809D01*
X109217714Y-117261904D01*
X109170095Y-117357142D01*
X109122476Y-117404761D01*
X109027238Y-117452380D01*
X108741523Y-117452380D01*
X108646285Y-117404761D01*
X108598666Y-117357142D01*
G04 #@! TD*
M02*
