G04 #@! TF.GenerationSoftware,KiCad,Pcbnew,5.0.1-33cea8e~66~ubuntu18.04.1*
G04 #@! TF.CreationDate,2018-10-18T18:40:30+09:00*
G04 #@! TF.ProjectId,touch_relay_jack,746F7563685F72656C61795F6A61636B,rev?*
G04 #@! TF.SameCoordinates,Original*
G04 #@! TF.FileFunction,Soldermask,Bot*
G04 #@! TF.FilePolarity,Negative*
%FSLAX46Y46*%
G04 Gerber Fmt 4.6, Leading zero omitted, Abs format (unit mm)*
G04 Created by KiCad (PCBNEW 5.0.1-33cea8e~66~ubuntu18.04.1) date 2018年10月18日 18時40分30秒*
%MOMM*%
%LPD*%
G01*
G04 APERTURE LIST*
%ADD10C,0.100000*%
G04 APERTURE END LIST*
D10*
G36*
X120708142Y-115879242D02*
X120856102Y-115940530D01*
X120989258Y-116029502D01*
X121102498Y-116142742D01*
X121191470Y-116275898D01*
X121252758Y-116423858D01*
X121284000Y-116580925D01*
X121284000Y-116741075D01*
X121252758Y-116898142D01*
X121225686Y-116963498D01*
X121191471Y-117046100D01*
X121125389Y-117145000D01*
X121102498Y-117179258D01*
X120989258Y-117292498D01*
X120856102Y-117381470D01*
X120708142Y-117442758D01*
X120551075Y-117474000D01*
X120390925Y-117474000D01*
X120233858Y-117442758D01*
X120085898Y-117381470D01*
X119952742Y-117292498D01*
X119839502Y-117179258D01*
X119816612Y-117145000D01*
X119750529Y-117046100D01*
X119716314Y-116963498D01*
X119689242Y-116898142D01*
X119658000Y-116741075D01*
X119658000Y-116580925D01*
X119689242Y-116423858D01*
X119750530Y-116275898D01*
X119839502Y-116142742D01*
X119952742Y-116029502D01*
X120085898Y-115940530D01*
X120233858Y-115879242D01*
X120390925Y-115848000D01*
X120551075Y-115848000D01*
X120708142Y-115879242D01*
X120708142Y-115879242D01*
G37*
G36*
X105468142Y-115879242D02*
X105616102Y-115940530D01*
X105749258Y-116029502D01*
X105862498Y-116142742D01*
X105951470Y-116275898D01*
X106012758Y-116423858D01*
X106044000Y-116580925D01*
X106044000Y-116741075D01*
X106012758Y-116898142D01*
X105985686Y-116963498D01*
X105951471Y-117046100D01*
X105885389Y-117145000D01*
X105862498Y-117179258D01*
X105749258Y-117292498D01*
X105616102Y-117381470D01*
X105468142Y-117442758D01*
X105311075Y-117474000D01*
X105150925Y-117474000D01*
X104993858Y-117442758D01*
X104845898Y-117381470D01*
X104712742Y-117292498D01*
X104599502Y-117179258D01*
X104576612Y-117145000D01*
X104510529Y-117046100D01*
X104476314Y-116963498D01*
X104449242Y-116898142D01*
X104418000Y-116741075D01*
X104418000Y-116580925D01*
X104449242Y-116423858D01*
X104510530Y-116275898D01*
X104599502Y-116142742D01*
X104712742Y-116029502D01*
X104845898Y-115940530D01*
X104993858Y-115879242D01*
X105150925Y-115848000D01*
X105311075Y-115848000D01*
X105468142Y-115879242D01*
X105468142Y-115879242D01*
G37*
G36*
X117331142Y-115550242D02*
X117445583Y-115597646D01*
X117466841Y-115606451D01*
X117479102Y-115611530D01*
X117546130Y-115656317D01*
X117612257Y-115700501D01*
X117725499Y-115813743D01*
X117769264Y-115879242D01*
X117814470Y-115946898D01*
X117875758Y-116094858D01*
X117907000Y-116251925D01*
X117907000Y-116412075D01*
X117875758Y-116569142D01*
X117814470Y-116717102D01*
X117725498Y-116850258D01*
X117612258Y-116963498D01*
X117479102Y-117052470D01*
X117331142Y-117113758D01*
X117174075Y-117145000D01*
X117013925Y-117145000D01*
X116856858Y-117113758D01*
X116708898Y-117052470D01*
X116575742Y-116963498D01*
X116462502Y-116850258D01*
X116373530Y-116717102D01*
X116312242Y-116569142D01*
X116281000Y-116412075D01*
X116281000Y-116251925D01*
X116312242Y-116094858D01*
X116373530Y-115946898D01*
X116418736Y-115879242D01*
X116462501Y-115813743D01*
X116575743Y-115700501D01*
X116641870Y-115656317D01*
X116708898Y-115611530D01*
X116721160Y-115606451D01*
X116742417Y-115597646D01*
X116856858Y-115550242D01*
X117013925Y-115519000D01*
X117174075Y-115519000D01*
X117331142Y-115550242D01*
X117331142Y-115550242D01*
G37*
G36*
X112827000Y-117145000D02*
X111201000Y-117145000D01*
X111201000Y-115519000D01*
X112827000Y-115519000D01*
X112827000Y-117145000D01*
X112827000Y-117145000D01*
G37*
G36*
X86735256Y-112945298D02*
X86841579Y-112966447D01*
X87054037Y-113054450D01*
X87095272Y-113071530D01*
X87142042Y-113090903D01*
X87246202Y-113160501D01*
X87412454Y-113271587D01*
X87642413Y-113501546D01*
X87642415Y-113501549D01*
X87823097Y-113771958D01*
X87929627Y-114029143D01*
X87947553Y-114072422D01*
X88011000Y-114391389D01*
X88011000Y-114716611D01*
X87947553Y-115035578D01*
X87823098Y-115336040D01*
X87642413Y-115606454D01*
X87412454Y-115836413D01*
X87412451Y-115836415D01*
X87142042Y-116017097D01*
X86841579Y-116141553D01*
X86835601Y-116142742D01*
X86522611Y-116205000D01*
X86197389Y-116205000D01*
X85884399Y-116142742D01*
X85878421Y-116141553D01*
X85577958Y-116017097D01*
X85307549Y-115836415D01*
X85307546Y-115836413D01*
X85077587Y-115606454D01*
X84896902Y-115336040D01*
X84772447Y-115035578D01*
X84709000Y-114716611D01*
X84709000Y-114391389D01*
X84772447Y-114072422D01*
X84790374Y-114029143D01*
X84896903Y-113771958D01*
X85077585Y-113501549D01*
X85077587Y-113501546D01*
X85307546Y-113271587D01*
X85473798Y-113160501D01*
X85577958Y-113090903D01*
X85624729Y-113071530D01*
X85665963Y-113054450D01*
X85878421Y-112966447D01*
X85984744Y-112945298D01*
X86197389Y-112903000D01*
X86522611Y-112903000D01*
X86735256Y-112945298D01*
X86735256Y-112945298D01*
G37*
G36*
X120708142Y-113339242D02*
X120856102Y-113400530D01*
X120989258Y-113489502D01*
X121102498Y-113602742D01*
X121191470Y-113735898D01*
X121252758Y-113883858D01*
X121284000Y-114040925D01*
X121284000Y-114201075D01*
X121252758Y-114358142D01*
X121225686Y-114423498D01*
X121191471Y-114506100D01*
X121125389Y-114605000D01*
X121102498Y-114639258D01*
X120989258Y-114752498D01*
X120856102Y-114841470D01*
X120708142Y-114902758D01*
X120551075Y-114934000D01*
X120390925Y-114934000D01*
X120233858Y-114902758D01*
X120085898Y-114841470D01*
X119952742Y-114752498D01*
X119839502Y-114639258D01*
X119816612Y-114605000D01*
X119750529Y-114506100D01*
X119716314Y-114423498D01*
X119689242Y-114358142D01*
X119658000Y-114201075D01*
X119658000Y-114040925D01*
X119689242Y-113883858D01*
X119750530Y-113735898D01*
X119839502Y-113602742D01*
X119952742Y-113489502D01*
X120085898Y-113400530D01*
X120233858Y-113339242D01*
X120390925Y-113308000D01*
X120551075Y-113308000D01*
X120708142Y-113339242D01*
X120708142Y-113339242D01*
G37*
G36*
X105468142Y-113339242D02*
X105616102Y-113400530D01*
X105749258Y-113489502D01*
X105862498Y-113602742D01*
X105951470Y-113735898D01*
X106012758Y-113883858D01*
X106044000Y-114040925D01*
X106044000Y-114201075D01*
X106012758Y-114358142D01*
X105985686Y-114423498D01*
X105951471Y-114506100D01*
X105885389Y-114605000D01*
X105862498Y-114639258D01*
X105749258Y-114752498D01*
X105616102Y-114841470D01*
X105468142Y-114902758D01*
X105311075Y-114934000D01*
X105150925Y-114934000D01*
X104993858Y-114902758D01*
X104845898Y-114841470D01*
X104712742Y-114752498D01*
X104599502Y-114639258D01*
X104576612Y-114605000D01*
X104510529Y-114506100D01*
X104476314Y-114423498D01*
X104449242Y-114358142D01*
X104418000Y-114201075D01*
X104418000Y-114040925D01*
X104449242Y-113883858D01*
X104510530Y-113735898D01*
X104599502Y-113602742D01*
X104712742Y-113489502D01*
X104845898Y-113400530D01*
X104993858Y-113339242D01*
X105150925Y-113308000D01*
X105311075Y-113308000D01*
X105468142Y-113339242D01*
X105468142Y-113339242D01*
G37*
G36*
X117331142Y-113010242D02*
X117479102Y-113071530D01*
X117546130Y-113116317D01*
X117612257Y-113160501D01*
X117725499Y-113273743D01*
X117769264Y-113339242D01*
X117814470Y-113406898D01*
X117875758Y-113554858D01*
X117907000Y-113711925D01*
X117907000Y-113872075D01*
X117875758Y-114029142D01*
X117814470Y-114177102D01*
X117725498Y-114310258D01*
X117612258Y-114423498D01*
X117479102Y-114512470D01*
X117331142Y-114573758D01*
X117174075Y-114605000D01*
X117013925Y-114605000D01*
X116856858Y-114573758D01*
X116708898Y-114512470D01*
X116575742Y-114423498D01*
X116462502Y-114310258D01*
X116373530Y-114177102D01*
X116312242Y-114029142D01*
X116281000Y-113872075D01*
X116281000Y-113711925D01*
X116312242Y-113554858D01*
X116373530Y-113406898D01*
X116418736Y-113339242D01*
X116462501Y-113273743D01*
X116575743Y-113160501D01*
X116641870Y-113116317D01*
X116708898Y-113071530D01*
X116856858Y-113010242D01*
X117013925Y-112979000D01*
X117174075Y-112979000D01*
X117331142Y-113010242D01*
X117331142Y-113010242D01*
G37*
G36*
X112251142Y-113010242D02*
X112399102Y-113071530D01*
X112466130Y-113116317D01*
X112532257Y-113160501D01*
X112645499Y-113273743D01*
X112689264Y-113339242D01*
X112734470Y-113406898D01*
X112795758Y-113554858D01*
X112827000Y-113711925D01*
X112827000Y-113872075D01*
X112795758Y-114029142D01*
X112734470Y-114177102D01*
X112645498Y-114310258D01*
X112532258Y-114423498D01*
X112399102Y-114512470D01*
X112251142Y-114573758D01*
X112094075Y-114605000D01*
X111933925Y-114605000D01*
X111776858Y-114573758D01*
X111628898Y-114512470D01*
X111495742Y-114423498D01*
X111382502Y-114310258D01*
X111293530Y-114177102D01*
X111232242Y-114029142D01*
X111201000Y-113872075D01*
X111201000Y-113711925D01*
X111232242Y-113554858D01*
X111293530Y-113406898D01*
X111338736Y-113339242D01*
X111382501Y-113273743D01*
X111495743Y-113160501D01*
X111561870Y-113116317D01*
X111628898Y-113071530D01*
X111776858Y-113010242D01*
X111933925Y-112979000D01*
X112094075Y-112979000D01*
X112251142Y-113010242D01*
X112251142Y-113010242D01*
G37*
G36*
X105468142Y-110799242D02*
X105616102Y-110860530D01*
X105749258Y-110949502D01*
X105862498Y-111062742D01*
X105951470Y-111195898D01*
X106012758Y-111343858D01*
X106044000Y-111500925D01*
X106044000Y-111661075D01*
X106012758Y-111818142D01*
X105951470Y-111966102D01*
X105862498Y-112099258D01*
X105749258Y-112212498D01*
X105616102Y-112301470D01*
X105468142Y-112362758D01*
X105311075Y-112394000D01*
X105150925Y-112394000D01*
X104993858Y-112362758D01*
X104845898Y-112301470D01*
X104712742Y-112212498D01*
X104599502Y-112099258D01*
X104510530Y-111966102D01*
X104449242Y-111818142D01*
X104418000Y-111661075D01*
X104418000Y-111500925D01*
X104449242Y-111343858D01*
X104510530Y-111195898D01*
X104599502Y-111062742D01*
X104712742Y-110949502D01*
X104845898Y-110860530D01*
X104993858Y-110799242D01*
X105150925Y-110768000D01*
X105311075Y-110768000D01*
X105468142Y-110799242D01*
X105468142Y-110799242D01*
G37*
G36*
X120708142Y-110799242D02*
X120856102Y-110860530D01*
X120989258Y-110949502D01*
X121102498Y-111062742D01*
X121191470Y-111195898D01*
X121252758Y-111343858D01*
X121284000Y-111500925D01*
X121284000Y-111661075D01*
X121252758Y-111818142D01*
X121191470Y-111966102D01*
X121102498Y-112099258D01*
X120989258Y-112212498D01*
X120856102Y-112301470D01*
X120708142Y-112362758D01*
X120551075Y-112394000D01*
X120390925Y-112394000D01*
X120233858Y-112362758D01*
X120085898Y-112301470D01*
X119952742Y-112212498D01*
X119839502Y-112099258D01*
X119750530Y-111966102D01*
X119689242Y-111818142D01*
X119658000Y-111661075D01*
X119658000Y-111500925D01*
X119689242Y-111343858D01*
X119750530Y-111195898D01*
X119839502Y-111062742D01*
X119952742Y-110949502D01*
X120085898Y-110860530D01*
X120233858Y-110799242D01*
X120390925Y-110768000D01*
X120551075Y-110768000D01*
X120708142Y-110799242D01*
X120708142Y-110799242D01*
G37*
G36*
X105468142Y-108259242D02*
X105616102Y-108320530D01*
X105749258Y-108409502D01*
X105862498Y-108522742D01*
X105951470Y-108655898D01*
X106012758Y-108803858D01*
X106044000Y-108960925D01*
X106044000Y-109121075D01*
X106012758Y-109278142D01*
X105951470Y-109426102D01*
X105862498Y-109559258D01*
X105749258Y-109672498D01*
X105616102Y-109761470D01*
X105468142Y-109822758D01*
X105311075Y-109854000D01*
X105150925Y-109854000D01*
X104993858Y-109822758D01*
X104845898Y-109761470D01*
X104712742Y-109672498D01*
X104599502Y-109559258D01*
X104510530Y-109426102D01*
X104449242Y-109278142D01*
X104418000Y-109121075D01*
X104418000Y-108960925D01*
X104449242Y-108803858D01*
X104510530Y-108655898D01*
X104599502Y-108522742D01*
X104712742Y-108409502D01*
X104845898Y-108320530D01*
X104993858Y-108259242D01*
X105150925Y-108228000D01*
X105311075Y-108228000D01*
X105468142Y-108259242D01*
X105468142Y-108259242D01*
G37*
G36*
X120708142Y-108259242D02*
X120856102Y-108320530D01*
X120989258Y-108409502D01*
X121102498Y-108522742D01*
X121191470Y-108655898D01*
X121252758Y-108803858D01*
X121284000Y-108960925D01*
X121284000Y-109121075D01*
X121252758Y-109278142D01*
X121191470Y-109426102D01*
X121102498Y-109559258D01*
X120989258Y-109672498D01*
X120856102Y-109761470D01*
X120708142Y-109822758D01*
X120551075Y-109854000D01*
X120390925Y-109854000D01*
X120233858Y-109822758D01*
X120085898Y-109761470D01*
X119952742Y-109672498D01*
X119839502Y-109559258D01*
X119750530Y-109426102D01*
X119689242Y-109278142D01*
X119658000Y-109121075D01*
X119658000Y-108960925D01*
X119689242Y-108803858D01*
X119750530Y-108655898D01*
X119839502Y-108522742D01*
X119952742Y-108409502D01*
X120085898Y-108320530D01*
X120233858Y-108259242D01*
X120390925Y-108228000D01*
X120551075Y-108228000D01*
X120708142Y-108259242D01*
X120708142Y-108259242D01*
G37*
G36*
X105468142Y-105719242D02*
X105616102Y-105780530D01*
X105749258Y-105869502D01*
X105862498Y-105982742D01*
X105951470Y-106115898D01*
X106012758Y-106263858D01*
X106044000Y-106420925D01*
X106044000Y-106581075D01*
X106012758Y-106738142D01*
X105985686Y-106803498D01*
X105951471Y-106886100D01*
X105885389Y-106985000D01*
X105862498Y-107019258D01*
X105749258Y-107132498D01*
X105616102Y-107221470D01*
X105468142Y-107282758D01*
X105311075Y-107314000D01*
X105150925Y-107314000D01*
X104993858Y-107282758D01*
X104845898Y-107221470D01*
X104712742Y-107132498D01*
X104599502Y-107019258D01*
X104576612Y-106985000D01*
X104510529Y-106886100D01*
X104476314Y-106803498D01*
X104449242Y-106738142D01*
X104418000Y-106581075D01*
X104418000Y-106420925D01*
X104449242Y-106263858D01*
X104510530Y-106115898D01*
X104599502Y-105982742D01*
X104712742Y-105869502D01*
X104845898Y-105780530D01*
X104993858Y-105719242D01*
X105150925Y-105688000D01*
X105311075Y-105688000D01*
X105468142Y-105719242D01*
X105468142Y-105719242D01*
G37*
G36*
X120708142Y-105719242D02*
X120856102Y-105780530D01*
X120989258Y-105869502D01*
X121102498Y-105982742D01*
X121191470Y-106115898D01*
X121252758Y-106263858D01*
X121284000Y-106420925D01*
X121284000Y-106581075D01*
X121252758Y-106738142D01*
X121225686Y-106803498D01*
X121191471Y-106886100D01*
X121125389Y-106985000D01*
X121102498Y-107019258D01*
X120989258Y-107132498D01*
X120856102Y-107221470D01*
X120708142Y-107282758D01*
X120551075Y-107314000D01*
X120390925Y-107314000D01*
X120233858Y-107282758D01*
X120085898Y-107221470D01*
X119952742Y-107132498D01*
X119839502Y-107019258D01*
X119816612Y-106985000D01*
X119750529Y-106886100D01*
X119716314Y-106803498D01*
X119689242Y-106738142D01*
X119658000Y-106581075D01*
X119658000Y-106420925D01*
X119689242Y-106263858D01*
X119750530Y-106115898D01*
X119839502Y-105982742D01*
X119952742Y-105869502D01*
X120085898Y-105780530D01*
X120233858Y-105719242D01*
X120390925Y-105688000D01*
X120551075Y-105688000D01*
X120708142Y-105719242D01*
X120708142Y-105719242D01*
G37*
G36*
X112251142Y-105390242D02*
X112365583Y-105437646D01*
X112397823Y-105451000D01*
X112399102Y-105451530D01*
X112466130Y-105496317D01*
X112532257Y-105540501D01*
X112645499Y-105653743D01*
X112689264Y-105719242D01*
X112734470Y-105786898D01*
X112795758Y-105934858D01*
X112827000Y-106091925D01*
X112827000Y-106252075D01*
X112795758Y-106409142D01*
X112734470Y-106557102D01*
X112645498Y-106690258D01*
X112532258Y-106803498D01*
X112399102Y-106892470D01*
X112251142Y-106953758D01*
X112094075Y-106985000D01*
X111933925Y-106985000D01*
X111776858Y-106953758D01*
X111628898Y-106892470D01*
X111495742Y-106803498D01*
X111382502Y-106690258D01*
X111293530Y-106557102D01*
X111232242Y-106409142D01*
X111201000Y-106252075D01*
X111201000Y-106091925D01*
X111232242Y-105934858D01*
X111293530Y-105786898D01*
X111338736Y-105719242D01*
X111382501Y-105653743D01*
X111495743Y-105540501D01*
X111561870Y-105496317D01*
X111628898Y-105451530D01*
X111630178Y-105451000D01*
X111662417Y-105437646D01*
X111776858Y-105390242D01*
X111933925Y-105359000D01*
X112094075Y-105359000D01*
X112251142Y-105390242D01*
X112251142Y-105390242D01*
G37*
G36*
X117331142Y-105390242D02*
X117445583Y-105437646D01*
X117477823Y-105451000D01*
X117479102Y-105451530D01*
X117546130Y-105496317D01*
X117612257Y-105540501D01*
X117725499Y-105653743D01*
X117769264Y-105719242D01*
X117814470Y-105786898D01*
X117875758Y-105934858D01*
X117907000Y-106091925D01*
X117907000Y-106252075D01*
X117875758Y-106409142D01*
X117814470Y-106557102D01*
X117725498Y-106690258D01*
X117612258Y-106803498D01*
X117479102Y-106892470D01*
X117331142Y-106953758D01*
X117174075Y-106985000D01*
X117013925Y-106985000D01*
X116856858Y-106953758D01*
X116708898Y-106892470D01*
X116575742Y-106803498D01*
X116462502Y-106690258D01*
X116373530Y-106557102D01*
X116312242Y-106409142D01*
X116281000Y-106252075D01*
X116281000Y-106091925D01*
X116312242Y-105934858D01*
X116373530Y-105786898D01*
X116418736Y-105719242D01*
X116462501Y-105653743D01*
X116575743Y-105540501D01*
X116641870Y-105496317D01*
X116708898Y-105451530D01*
X116710178Y-105451000D01*
X116742417Y-105437646D01*
X116856858Y-105390242D01*
X117013925Y-105359000D01*
X117174075Y-105359000D01*
X117331142Y-105390242D01*
X117331142Y-105390242D01*
G37*
G36*
X89775293Y-97847661D02*
X90023295Y-97896992D01*
X90724132Y-98187288D01*
X91153128Y-98473934D01*
X91354872Y-98608735D01*
X91891265Y-99145128D01*
X91891267Y-99145131D01*
X92312712Y-99775868D01*
X92430434Y-100060075D01*
X92603008Y-100476706D01*
X92751000Y-101220708D01*
X92751000Y-101979292D01*
X92700335Y-102234000D01*
X92603008Y-102723295D01*
X92312712Y-103424132D01*
X92007492Y-103880926D01*
X91891265Y-104054872D01*
X91354872Y-104591265D01*
X91354869Y-104591267D01*
X90724132Y-105012712D01*
X90023295Y-105303008D01*
X89775293Y-105352339D01*
X89279292Y-105451000D01*
X88520708Y-105451000D01*
X88024707Y-105352339D01*
X87776705Y-105303008D01*
X87075868Y-105012712D01*
X86445131Y-104591267D01*
X86445128Y-104591265D01*
X85908735Y-104054872D01*
X85792508Y-103880926D01*
X85487288Y-103424132D01*
X85196992Y-102723295D01*
X85099665Y-102234000D01*
X85049000Y-101979292D01*
X85049000Y-101220708D01*
X85196992Y-100476706D01*
X85369566Y-100060075D01*
X85487288Y-99775868D01*
X85908733Y-99145131D01*
X85908735Y-99145128D01*
X86445128Y-98608735D01*
X86646872Y-98473934D01*
X87075868Y-98187288D01*
X87776705Y-97896992D01*
X88024707Y-97847661D01*
X88520708Y-97749000D01*
X89279292Y-97749000D01*
X89775293Y-97847661D01*
X89775293Y-97847661D01*
G37*
G36*
X98424239Y-98411467D02*
X98738282Y-98473934D01*
X99329926Y-98719001D01*
X99858802Y-99072385D01*
X99862395Y-99074786D01*
X100315214Y-99527605D01*
X100315216Y-99527608D01*
X100670999Y-100060074D01*
X100916066Y-100651718D01*
X100916066Y-100651719D01*
X101041000Y-101279803D01*
X101041000Y-101920197D01*
X101029245Y-101979292D01*
X100916066Y-102548282D01*
X100670999Y-103139926D01*
X100544328Y-103329502D01*
X100315214Y-103672395D01*
X99862395Y-104125214D01*
X99862392Y-104125216D01*
X99329926Y-104480999D01*
X98738282Y-104726066D01*
X98497301Y-104774000D01*
X98110197Y-104851000D01*
X97469803Y-104851000D01*
X97082699Y-104774000D01*
X96841718Y-104726066D01*
X96250074Y-104480999D01*
X95717608Y-104125216D01*
X95717605Y-104125214D01*
X95264786Y-103672395D01*
X95035672Y-103329502D01*
X94909001Y-103139926D01*
X94663934Y-102548282D01*
X94550755Y-101979292D01*
X94539000Y-101920197D01*
X94539000Y-101279803D01*
X94663934Y-100651719D01*
X94663934Y-100651718D01*
X94909001Y-100060074D01*
X95264784Y-99527608D01*
X95264786Y-99527605D01*
X95717605Y-99074786D01*
X95721198Y-99072385D01*
X96250074Y-98719001D01*
X96841718Y-98473934D01*
X97155761Y-98411467D01*
X97469803Y-98349000D01*
X98110197Y-98349000D01*
X98424239Y-98411467D01*
X98424239Y-98411467D01*
G37*
G36*
X105468142Y-103179242D02*
X105616102Y-103240530D01*
X105749258Y-103329502D01*
X105862498Y-103442742D01*
X105951470Y-103575898D01*
X106012758Y-103723858D01*
X106044000Y-103880925D01*
X106044000Y-104041075D01*
X106012758Y-104198142D01*
X105951470Y-104346102D01*
X105862498Y-104479258D01*
X105749258Y-104592498D01*
X105616102Y-104681470D01*
X105468142Y-104742758D01*
X105311075Y-104774000D01*
X105150925Y-104774000D01*
X104993858Y-104742758D01*
X104845898Y-104681470D01*
X104712742Y-104592498D01*
X104599502Y-104479258D01*
X104510530Y-104346102D01*
X104449242Y-104198142D01*
X104418000Y-104041075D01*
X104418000Y-103880925D01*
X104449242Y-103723858D01*
X104510530Y-103575898D01*
X104599502Y-103442742D01*
X104712742Y-103329502D01*
X104845898Y-103240530D01*
X104993858Y-103179242D01*
X105150925Y-103148000D01*
X105311075Y-103148000D01*
X105468142Y-103179242D01*
X105468142Y-103179242D01*
G37*
G36*
X120708142Y-103179242D02*
X120856102Y-103240530D01*
X120989258Y-103329502D01*
X121102498Y-103442742D01*
X121191470Y-103575898D01*
X121252758Y-103723858D01*
X121284000Y-103880925D01*
X121284000Y-104041075D01*
X121252758Y-104198142D01*
X121191470Y-104346102D01*
X121102498Y-104479258D01*
X120989258Y-104592498D01*
X120856102Y-104681470D01*
X120708142Y-104742758D01*
X120551075Y-104774000D01*
X120390925Y-104774000D01*
X120233858Y-104742758D01*
X120085898Y-104681470D01*
X119952742Y-104592498D01*
X119839502Y-104479258D01*
X119750530Y-104346102D01*
X119689242Y-104198142D01*
X119658000Y-104041075D01*
X119658000Y-103880925D01*
X119689242Y-103723858D01*
X119750530Y-103575898D01*
X119839502Y-103442742D01*
X119952742Y-103329502D01*
X120085898Y-103240530D01*
X120233858Y-103179242D01*
X120390925Y-103148000D01*
X120551075Y-103148000D01*
X120708142Y-103179242D01*
X120708142Y-103179242D01*
G37*
G36*
X115691256Y-99737298D02*
X115797579Y-99758447D01*
X116098042Y-99882903D01*
X116363196Y-100060074D01*
X116368454Y-100063587D01*
X116598413Y-100293546D01*
X116598415Y-100293549D01*
X116779097Y-100563958D01*
X116903553Y-100864421D01*
X116967000Y-101183391D01*
X116967000Y-101508609D01*
X116903553Y-101827579D01*
X116779097Y-102128042D01*
X116770124Y-102141471D01*
X116598413Y-102398454D01*
X116368454Y-102628413D01*
X116368451Y-102628415D01*
X116098042Y-102809097D01*
X115797579Y-102933553D01*
X115691256Y-102954702D01*
X115478611Y-102997000D01*
X115153389Y-102997000D01*
X114940744Y-102954702D01*
X114834421Y-102933553D01*
X114533958Y-102809097D01*
X114263549Y-102628415D01*
X114263546Y-102628413D01*
X114033587Y-102398454D01*
X113861876Y-102141471D01*
X113852903Y-102128042D01*
X113728447Y-101827579D01*
X113665000Y-101508609D01*
X113665000Y-101183391D01*
X113728447Y-100864421D01*
X113852903Y-100563958D01*
X114033585Y-100293549D01*
X114033587Y-100293546D01*
X114263546Y-100063587D01*
X114268804Y-100060074D01*
X114533958Y-99882903D01*
X114834421Y-99758447D01*
X114940744Y-99737298D01*
X115153389Y-99695000D01*
X115478611Y-99695000D01*
X115691256Y-99737298D01*
X115691256Y-99737298D01*
G37*
G36*
X120708142Y-100639242D02*
X120856102Y-100700530D01*
X120989258Y-100789502D01*
X121102498Y-100902742D01*
X121191470Y-101035898D01*
X121252758Y-101183858D01*
X121284000Y-101340925D01*
X121284000Y-101501075D01*
X121252758Y-101658142D01*
X121191470Y-101806102D01*
X121102498Y-101939258D01*
X120989258Y-102052498D01*
X120856102Y-102141470D01*
X120708142Y-102202758D01*
X120551075Y-102234000D01*
X120390925Y-102234000D01*
X120233858Y-102202758D01*
X120085898Y-102141470D01*
X119952742Y-102052498D01*
X119839502Y-101939258D01*
X119750530Y-101806102D01*
X119689242Y-101658142D01*
X119658000Y-101501075D01*
X119658000Y-101340925D01*
X119689242Y-101183858D01*
X119750530Y-101035898D01*
X119839502Y-100902742D01*
X119952742Y-100789502D01*
X120085898Y-100700530D01*
X120233858Y-100639242D01*
X120390925Y-100608000D01*
X120551075Y-100608000D01*
X120708142Y-100639242D01*
X120708142Y-100639242D01*
G37*
G36*
X105468142Y-100639242D02*
X105616102Y-100700530D01*
X105749258Y-100789502D01*
X105862498Y-100902742D01*
X105951470Y-101035898D01*
X106012758Y-101183858D01*
X106044000Y-101340925D01*
X106044000Y-101501075D01*
X106012758Y-101658142D01*
X105951470Y-101806102D01*
X105862498Y-101939258D01*
X105749258Y-102052498D01*
X105616102Y-102141470D01*
X105468142Y-102202758D01*
X105311075Y-102234000D01*
X105150925Y-102234000D01*
X104993858Y-102202758D01*
X104845898Y-102141470D01*
X104712742Y-102052498D01*
X104599502Y-101939258D01*
X104510530Y-101806102D01*
X104449242Y-101658142D01*
X104418000Y-101501075D01*
X104418000Y-101340925D01*
X104449242Y-101183858D01*
X104510530Y-101035898D01*
X104599502Y-100902742D01*
X104712742Y-100789502D01*
X104845898Y-100700530D01*
X104993858Y-100639242D01*
X105150925Y-100608000D01*
X105311075Y-100608000D01*
X105468142Y-100639242D01*
X105468142Y-100639242D01*
G37*
G36*
X120708142Y-98099242D02*
X120856102Y-98160530D01*
X120989258Y-98249502D01*
X121102498Y-98362742D01*
X121191470Y-98495898D01*
X121252758Y-98643858D01*
X121284000Y-98800925D01*
X121284000Y-98961075D01*
X121252758Y-99118142D01*
X121205354Y-99232583D01*
X121191471Y-99266100D01*
X121102499Y-99399257D01*
X120989257Y-99512499D01*
X120923130Y-99556683D01*
X120856102Y-99601470D01*
X120708142Y-99662758D01*
X120551075Y-99694000D01*
X120390925Y-99694000D01*
X120233858Y-99662758D01*
X120085898Y-99601470D01*
X120018870Y-99556683D01*
X119952743Y-99512499D01*
X119839501Y-99399257D01*
X119750529Y-99266100D01*
X119736646Y-99232583D01*
X119689242Y-99118142D01*
X119658000Y-98961075D01*
X119658000Y-98800925D01*
X119689242Y-98643858D01*
X119750530Y-98495898D01*
X119839502Y-98362742D01*
X119952742Y-98249502D01*
X120085898Y-98160530D01*
X120233858Y-98099242D01*
X120390925Y-98068000D01*
X120551075Y-98068000D01*
X120708142Y-98099242D01*
X120708142Y-98099242D01*
G37*
G36*
X105468142Y-98099242D02*
X105616102Y-98160530D01*
X105749258Y-98249502D01*
X105862498Y-98362742D01*
X105951470Y-98495898D01*
X106012758Y-98643858D01*
X106044000Y-98800925D01*
X106044000Y-98961075D01*
X106012758Y-99118142D01*
X105965354Y-99232583D01*
X105951471Y-99266100D01*
X105862499Y-99399257D01*
X105749257Y-99512499D01*
X105683130Y-99556683D01*
X105616102Y-99601470D01*
X105468142Y-99662758D01*
X105311075Y-99694000D01*
X105150925Y-99694000D01*
X104993858Y-99662758D01*
X104845898Y-99601470D01*
X104778870Y-99556683D01*
X104712743Y-99512499D01*
X104599501Y-99399257D01*
X104510529Y-99266100D01*
X104496646Y-99232583D01*
X104449242Y-99118142D01*
X104418000Y-98961075D01*
X104418000Y-98800925D01*
X104449242Y-98643858D01*
X104510530Y-98495898D01*
X104599502Y-98362742D01*
X104712742Y-98249502D01*
X104845898Y-98160530D01*
X104993858Y-98099242D01*
X105150925Y-98068000D01*
X105311075Y-98068000D01*
X105468142Y-98099242D01*
X105468142Y-98099242D01*
G37*
G36*
X111071981Y-95707468D02*
X111254150Y-95782925D01*
X111418103Y-95892475D01*
X111557525Y-96031897D01*
X111667075Y-96195850D01*
X111742532Y-96378019D01*
X111781000Y-96571410D01*
X111781000Y-96768590D01*
X111742532Y-96961981D01*
X111667075Y-97144150D01*
X111557525Y-97308103D01*
X111418103Y-97447525D01*
X111254150Y-97557075D01*
X111071981Y-97632532D01*
X110878590Y-97671000D01*
X110681410Y-97671000D01*
X110488019Y-97632532D01*
X110305850Y-97557075D01*
X110141897Y-97447525D01*
X110002475Y-97308103D01*
X109892925Y-97144150D01*
X109817468Y-96961981D01*
X109779000Y-96768590D01*
X109779000Y-96571410D01*
X109817468Y-96378019D01*
X109892925Y-96195850D01*
X110002475Y-96031897D01*
X110141897Y-95892475D01*
X110305850Y-95782925D01*
X110488019Y-95707468D01*
X110681410Y-95669000D01*
X110878590Y-95669000D01*
X111071981Y-95707468D01*
X111071981Y-95707468D01*
G37*
G36*
X116281000Y-97671000D02*
X114279000Y-97671000D01*
X114279000Y-95669000D01*
X116281000Y-95669000D01*
X116281000Y-97671000D01*
X116281000Y-97671000D01*
G37*
G36*
X105468142Y-95559242D02*
X105616102Y-95620530D01*
X105683130Y-95665317D01*
X105688643Y-95669000D01*
X105749258Y-95709502D01*
X105862498Y-95822742D01*
X105951470Y-95955898D01*
X106012758Y-96103858D01*
X106044000Y-96260925D01*
X106044000Y-96421075D01*
X106012758Y-96578142D01*
X105951470Y-96726102D01*
X105862498Y-96859258D01*
X105749258Y-96972498D01*
X105616102Y-97061470D01*
X105468142Y-97122758D01*
X105311075Y-97154000D01*
X105150925Y-97154000D01*
X104993858Y-97122758D01*
X104845898Y-97061470D01*
X104712742Y-96972498D01*
X104599502Y-96859258D01*
X104510530Y-96726102D01*
X104449242Y-96578142D01*
X104418000Y-96421075D01*
X104418000Y-96260925D01*
X104449242Y-96103858D01*
X104510530Y-95955898D01*
X104599502Y-95822742D01*
X104712742Y-95709502D01*
X104773358Y-95669000D01*
X104778870Y-95665317D01*
X104845898Y-95620530D01*
X104993858Y-95559242D01*
X105150925Y-95528000D01*
X105311075Y-95528000D01*
X105468142Y-95559242D01*
X105468142Y-95559242D01*
G37*
G36*
X120708142Y-95559242D02*
X120856102Y-95620530D01*
X120923130Y-95665317D01*
X120928643Y-95669000D01*
X120989258Y-95709502D01*
X121102498Y-95822742D01*
X121191470Y-95955898D01*
X121252758Y-96103858D01*
X121284000Y-96260925D01*
X121284000Y-96421075D01*
X121252758Y-96578142D01*
X121191470Y-96726102D01*
X121102498Y-96859258D01*
X120989258Y-96972498D01*
X120856102Y-97061470D01*
X120708142Y-97122758D01*
X120551075Y-97154000D01*
X120390925Y-97154000D01*
X120233858Y-97122758D01*
X120085898Y-97061470D01*
X119952742Y-96972498D01*
X119839502Y-96859258D01*
X119750530Y-96726102D01*
X119689242Y-96578142D01*
X119658000Y-96421075D01*
X119658000Y-96260925D01*
X119689242Y-96103858D01*
X119750530Y-95955898D01*
X119839502Y-95822742D01*
X119952742Y-95709502D01*
X120013358Y-95669000D01*
X120018870Y-95665317D01*
X120085898Y-95620530D01*
X120233858Y-95559242D01*
X120390925Y-95528000D01*
X120551075Y-95528000D01*
X120708142Y-95559242D01*
X120708142Y-95559242D01*
G37*
G36*
X105468142Y-93019242D02*
X105616102Y-93080530D01*
X105749258Y-93169502D01*
X105862498Y-93282742D01*
X105951470Y-93415898D01*
X106012758Y-93563858D01*
X106044000Y-93720925D01*
X106044000Y-93881075D01*
X106012758Y-94038142D01*
X105951470Y-94186102D01*
X105862498Y-94319258D01*
X105749258Y-94432498D01*
X105616102Y-94521470D01*
X105468142Y-94582758D01*
X105311075Y-94614000D01*
X105150925Y-94614000D01*
X104993858Y-94582758D01*
X104845898Y-94521470D01*
X104712742Y-94432498D01*
X104599502Y-94319258D01*
X104510530Y-94186102D01*
X104449242Y-94038142D01*
X104418000Y-93881075D01*
X104418000Y-93720925D01*
X104449242Y-93563858D01*
X104510530Y-93415898D01*
X104599502Y-93282742D01*
X104712742Y-93169502D01*
X104845898Y-93080530D01*
X104993858Y-93019242D01*
X105150925Y-92988000D01*
X105311075Y-92988000D01*
X105468142Y-93019242D01*
X105468142Y-93019242D01*
G37*
G36*
X120708142Y-93019242D02*
X120856102Y-93080530D01*
X120989258Y-93169502D01*
X121102498Y-93282742D01*
X121191470Y-93415898D01*
X121252758Y-93563858D01*
X121284000Y-93720925D01*
X121284000Y-93881075D01*
X121252758Y-94038142D01*
X121191470Y-94186102D01*
X121102498Y-94319258D01*
X120989258Y-94432498D01*
X120856102Y-94521470D01*
X120708142Y-94582758D01*
X120551075Y-94614000D01*
X120390925Y-94614000D01*
X120233858Y-94582758D01*
X120085898Y-94521470D01*
X119952742Y-94432498D01*
X119839502Y-94319258D01*
X119750530Y-94186102D01*
X119689242Y-94038142D01*
X119658000Y-93881075D01*
X119658000Y-93720925D01*
X119689242Y-93563858D01*
X119750530Y-93415898D01*
X119839502Y-93282742D01*
X119952742Y-93169502D01*
X120085898Y-93080530D01*
X120233858Y-93019242D01*
X120390925Y-92988000D01*
X120551075Y-92988000D01*
X120708142Y-93019242D01*
X120708142Y-93019242D01*
G37*
G36*
X110690721Y-92140174D02*
X110790995Y-92181709D01*
X110881245Y-92242012D01*
X110957988Y-92318755D01*
X111018291Y-92409005D01*
X111059826Y-92509279D01*
X111081000Y-92615730D01*
X111081000Y-92724270D01*
X111059826Y-92830721D01*
X111018291Y-92930995D01*
X110957988Y-93021245D01*
X110881245Y-93097988D01*
X110790995Y-93158291D01*
X110690721Y-93199826D01*
X110584270Y-93221000D01*
X110475730Y-93221000D01*
X110369279Y-93199826D01*
X110269005Y-93158291D01*
X110178755Y-93097988D01*
X110102012Y-93021245D01*
X110041709Y-92930995D01*
X110000174Y-92830721D01*
X109979000Y-92724270D01*
X109979000Y-92615730D01*
X110000174Y-92509279D01*
X110041709Y-92409005D01*
X110102012Y-92318755D01*
X110178755Y-92242012D01*
X110269005Y-92181709D01*
X110369279Y-92140174D01*
X110475730Y-92119000D01*
X110584270Y-92119000D01*
X110690721Y-92140174D01*
X110690721Y-92140174D01*
G37*
G36*
X115690721Y-92140174D02*
X115790995Y-92181709D01*
X115881245Y-92242012D01*
X115957988Y-92318755D01*
X116018291Y-92409005D01*
X116059826Y-92509279D01*
X116081000Y-92615730D01*
X116081000Y-92724270D01*
X116059826Y-92830721D01*
X116018291Y-92930995D01*
X115957988Y-93021245D01*
X115881245Y-93097988D01*
X115790995Y-93158291D01*
X115690721Y-93199826D01*
X115584270Y-93221000D01*
X115475730Y-93221000D01*
X115369279Y-93199826D01*
X115269005Y-93158291D01*
X115178755Y-93097988D01*
X115102012Y-93021245D01*
X115041709Y-92930995D01*
X115000174Y-92830721D01*
X114979000Y-92724270D01*
X114979000Y-92615730D01*
X115000174Y-92509279D01*
X115041709Y-92409005D01*
X115102012Y-92318755D01*
X115178755Y-92242012D01*
X115269005Y-92181709D01*
X115369279Y-92140174D01*
X115475730Y-92119000D01*
X115584270Y-92119000D01*
X115690721Y-92140174D01*
X115690721Y-92140174D01*
G37*
G36*
X120708142Y-90479242D02*
X120856102Y-90540530D01*
X120989258Y-90629502D01*
X121102498Y-90742742D01*
X121191470Y-90875898D01*
X121252758Y-91023858D01*
X121284000Y-91180925D01*
X121284000Y-91341075D01*
X121252758Y-91498142D01*
X121191470Y-91646102D01*
X121102498Y-91779258D01*
X120989258Y-91892498D01*
X120856102Y-91981470D01*
X120708142Y-92042758D01*
X120551075Y-92074000D01*
X120390925Y-92074000D01*
X120233858Y-92042758D01*
X120085898Y-91981470D01*
X119952742Y-91892498D01*
X119839502Y-91779258D01*
X119750530Y-91646102D01*
X119689242Y-91498142D01*
X119658000Y-91341075D01*
X119658000Y-91180925D01*
X119689242Y-91023858D01*
X119750530Y-90875898D01*
X119839502Y-90742742D01*
X119952742Y-90629502D01*
X120085898Y-90540530D01*
X120233858Y-90479242D01*
X120390925Y-90448000D01*
X120551075Y-90448000D01*
X120708142Y-90479242D01*
X120708142Y-90479242D01*
G37*
G36*
X105468142Y-90479242D02*
X105616102Y-90540530D01*
X105749258Y-90629502D01*
X105862498Y-90742742D01*
X105951470Y-90875898D01*
X106012758Y-91023858D01*
X106044000Y-91180925D01*
X106044000Y-91341075D01*
X106012758Y-91498142D01*
X105951470Y-91646102D01*
X105862498Y-91779258D01*
X105749258Y-91892498D01*
X105616102Y-91981470D01*
X105468142Y-92042758D01*
X105311075Y-92074000D01*
X105150925Y-92074000D01*
X104993858Y-92042758D01*
X104845898Y-91981470D01*
X104712742Y-91892498D01*
X104599502Y-91779258D01*
X104510530Y-91646102D01*
X104449242Y-91498142D01*
X104418000Y-91341075D01*
X104418000Y-91180925D01*
X104449242Y-91023858D01*
X104510530Y-90875898D01*
X104599502Y-90742742D01*
X104712742Y-90629502D01*
X104845898Y-90540530D01*
X104993858Y-90479242D01*
X105150925Y-90448000D01*
X105311075Y-90448000D01*
X105468142Y-90479242D01*
X105468142Y-90479242D01*
G37*
G36*
X116221981Y-88207468D02*
X116404150Y-88282925D01*
X116568103Y-88392475D01*
X116707525Y-88531897D01*
X116817075Y-88695850D01*
X116892532Y-88878019D01*
X116931000Y-89071410D01*
X116931000Y-89268590D01*
X116892532Y-89461981D01*
X116817075Y-89644150D01*
X116707525Y-89808103D01*
X116568103Y-89947525D01*
X116404150Y-90057075D01*
X116221981Y-90132532D01*
X116028590Y-90171000D01*
X115831410Y-90171000D01*
X115638019Y-90132532D01*
X115455850Y-90057075D01*
X115291897Y-89947525D01*
X115152475Y-89808103D01*
X115042925Y-89644150D01*
X114967468Y-89461981D01*
X114929000Y-89268590D01*
X114929000Y-89071410D01*
X114967468Y-88878019D01*
X115042925Y-88695850D01*
X115152475Y-88531897D01*
X115291897Y-88392475D01*
X115455850Y-88282925D01*
X115638019Y-88207468D01*
X115831410Y-88169000D01*
X116028590Y-88169000D01*
X116221981Y-88207468D01*
X116221981Y-88207468D01*
G37*
G36*
X110421981Y-88207468D02*
X110604150Y-88282925D01*
X110768103Y-88392475D01*
X110907525Y-88531897D01*
X111017075Y-88695850D01*
X111092532Y-88878019D01*
X111131000Y-89071410D01*
X111131000Y-89268590D01*
X111092532Y-89461981D01*
X111017075Y-89644150D01*
X110907525Y-89808103D01*
X110768103Y-89947525D01*
X110604150Y-90057075D01*
X110421981Y-90132532D01*
X110228590Y-90171000D01*
X110031410Y-90171000D01*
X109838019Y-90132532D01*
X109655850Y-90057075D01*
X109491897Y-89947525D01*
X109352475Y-89808103D01*
X109242925Y-89644150D01*
X109167468Y-89461981D01*
X109129000Y-89268590D01*
X109129000Y-89071410D01*
X109167468Y-88878019D01*
X109242925Y-88695850D01*
X109352475Y-88531897D01*
X109491897Y-88392475D01*
X109655850Y-88282925D01*
X109838019Y-88207468D01*
X110031410Y-88169000D01*
X110228590Y-88169000D01*
X110421981Y-88207468D01*
X110421981Y-88207468D01*
G37*
G36*
X86735256Y-86529298D02*
X86841579Y-86550447D01*
X87142042Y-86674903D01*
X87408852Y-86853180D01*
X87412454Y-86855587D01*
X87642413Y-87085546D01*
X87823098Y-87355960D01*
X87947553Y-87656422D01*
X88011000Y-87975389D01*
X88011000Y-88300611D01*
X87992727Y-88392473D01*
X87947553Y-88619579D01*
X87823097Y-88920042D01*
X87721956Y-89071410D01*
X87642413Y-89190454D01*
X87412454Y-89420413D01*
X87412451Y-89420415D01*
X87142042Y-89601097D01*
X86841579Y-89725553D01*
X86735256Y-89746702D01*
X86522611Y-89789000D01*
X86197389Y-89789000D01*
X85984744Y-89746702D01*
X85878421Y-89725553D01*
X85577958Y-89601097D01*
X85307549Y-89420415D01*
X85307546Y-89420413D01*
X85077587Y-89190454D01*
X84998044Y-89071410D01*
X84896903Y-88920042D01*
X84772447Y-88619579D01*
X84727273Y-88392473D01*
X84709000Y-88300611D01*
X84709000Y-87975389D01*
X84772447Y-87656422D01*
X84896902Y-87355960D01*
X85077587Y-87085546D01*
X85307546Y-86855587D01*
X85311148Y-86853180D01*
X85577958Y-86674903D01*
X85878421Y-86550447D01*
X85984744Y-86529298D01*
X86197389Y-86487000D01*
X86522611Y-86487000D01*
X86735256Y-86529298D01*
X86735256Y-86529298D01*
G37*
G36*
X106044000Y-89534000D02*
X104418000Y-89534000D01*
X104418000Y-87908000D01*
X106044000Y-87908000D01*
X106044000Y-89534000D01*
X106044000Y-89534000D01*
G37*
G36*
X120708142Y-87939242D02*
X120856102Y-88000530D01*
X120989258Y-88089502D01*
X121102498Y-88202742D01*
X121191470Y-88335898D01*
X121252758Y-88483858D01*
X121284000Y-88640925D01*
X121284000Y-88801075D01*
X121252758Y-88958142D01*
X121191470Y-89106102D01*
X121102498Y-89239258D01*
X120989258Y-89352498D01*
X120856102Y-89441470D01*
X120708142Y-89502758D01*
X120551075Y-89534000D01*
X120390925Y-89534000D01*
X120233858Y-89502758D01*
X120085898Y-89441470D01*
X119952742Y-89352498D01*
X119839502Y-89239258D01*
X119750530Y-89106102D01*
X119689242Y-88958142D01*
X119658000Y-88801075D01*
X119658000Y-88640925D01*
X119689242Y-88483858D01*
X119750530Y-88335898D01*
X119839502Y-88202742D01*
X119952742Y-88089502D01*
X120085898Y-88000530D01*
X120233858Y-87939242D01*
X120390925Y-87908000D01*
X120551075Y-87908000D01*
X120708142Y-87939242D01*
X120708142Y-87939242D01*
G37*
M02*
